<svg width="445" height="339" viewBox="0 0 445 339" fill="none" xmlns="http://www.w3.org/2000/svg">
<path d="M217.75 256.001C219.667 258.459 222.667 260.084 226 260.084C231.75 260.084 236.417 255.417 236.417 249.667C236.417 247.292 235.625 245.084 234.292 243.334" stroke="#ED701E" stroke-width="5" stroke-linecap="round" stroke-linejoin="round"/>
<path d="M187.751 269.666C185.209 266.499 184.334 261.458 184.334 253.833V245.499C184.334 228.833 188.501 224.666 205.167 224.666H246.834C248.334 224.666 249.709 224.708 251.001 224.791C264.209 225.541 267.667 230.333 267.667 245.499V253.833C267.667 270.499 263.501 274.666 246.834 274.666H205.167C203.667 274.666 202.292 274.624 201.001 274.541" stroke="#ED701E" stroke-width="5" stroke-linecap="round" stroke-linejoin="round"/>
<path d="M201 224.667V216.334C201 202.542 205.167 191.334 226 191.334C243.292 191.334 249.083 197.084 250.583 206.167" stroke="#ED701E" stroke-width="5" stroke-linecap="round" stroke-linejoin="round"/>
<path d="M267.667 191.334L184.334 274.667" stroke="#ED701E" stroke-width="5" stroke-linecap="round" stroke-linejoin="round"/>
<path d="M213.416 157.584L171.833 173.251C162.249 176.834 154.416 188.167 154.416 198.334V260.251C154.416 270.084 160.916 283.001 168.833 288.917L204.666 315.667C216.416 324.501 235.749 324.501 247.499 315.667L283.333 288.917C291.249 283.001 297.749 270.084 297.749 260.251V198.334C297.749 188.084 289.916 176.751 280.333 173.167L238.749 157.584C231.666 155.001 220.333 155.001 213.416 157.584Z" stroke="#322972" stroke-width="5" stroke-linecap="round" stroke-linejoin="round"/>
<g clip-path="url(#clip0_5220_158516)">
<path d="M334.703 54.6718C328.566 60.2882 328.027 69.794 333.643 75.9304C339.259 82.0668 348.711 82.5224 354.902 76.9901C360.137 72.1914 361.285 64.5539 357.94 58.6201L361.008 55.8118L360.368 50.7532L365.061 52.1317L368.946 48.5598L368.39 43.447L373.083 44.8255L376.404 41.8548L376.065 38.7427L378.992 39.5938L380.961 37.8498L381.258 33.139L374.215 31.2516L351.164 52.1601C345.905 49.7185 339.29 50.5286 334.703 54.6718ZM336.681 73.2604C335.046 71.4591 335.2 68.7432 337.001 67.1075C338.802 65.4719 341.518 65.6261 343.154 67.4274C344.79 69.2287 344.635 71.9446 342.834 73.5803C340.979 75.1318 338.263 74.9776 336.681 73.2604Z" fill="#EBEBEB"/>
</g>
<g clip-path="url(#clip1_5220_158516)">
<path d="M391.269 207.799L392.681 233.357C392.755 234.256 393.498 235.006 394.39 235.006L440.02 235.306C440.986 235.306 441.729 234.556 441.729 233.582L441.878 213.72C441.878 212.746 441.135 211.996 440.168 211.996H412.003C411.557 211.996 411.111 211.846 410.814 211.471L405.983 206.6C405.686 206.3 405.24 206.075 404.794 206.075L392.978 206C391.938 206 391.194 206.824 391.269 207.799Z" fill="#EBEBEB"/>
<path d="M441.766 208.958L391.975 208.59L391.756 238.645L441.548 239.013L441.766 208.958Z" fill="#F5F5F5"/>
<path d="M387.999 211.321L391.566 242.65C391.641 243.175 392.087 243.625 392.681 243.625L441.209 244C441.804 244 442.25 243.55 442.324 242.95L444.999 211.696C445.074 211.021 444.553 210.497 443.885 210.497L389.114 210.047C388.445 210.047 387.925 210.646 387.999 211.321Z" fill="#EBEBEB"/>
</g>
<g clip-path="url(#clip2_5220_158516)">
<path d="M359.853 95.1451C359.999 95.1451 360.289 93.9917 360.289 92.5237C360.289 91.0557 360.144 89.9023 359.853 89.9023C359.708 89.9023 359.418 91.0557 359.418 92.5237C359.563 93.9917 359.708 95.1451 359.853 95.1451Z" fill="#B6B3B3"/>
<path d="M359.853 105.631C359.999 105.631 360.289 104.478 360.289 103.01C360.289 101.542 360.144 100.389 359.853 100.389C359.708 100.389 359.418 101.542 359.418 103.01C359.563 104.478 359.708 105.631 359.853 105.631Z" fill="#B6B3B3"/>
<path d="M359.853 116.116C359.999 116.116 360.289 114.962 360.289 113.494C360.289 112.026 360.144 110.873 359.853 110.873C359.708 110.873 359.418 112.026 359.418 113.494C359.563 114.962 359.708 116.116 359.853 116.116Z" fill="#B6B3B3"/>
<path d="M359.853 126.602C359.999 126.602 360.289 125.449 360.289 123.981C360.289 122.513 360.144 121.359 359.853 121.359C359.708 121.359 359.418 122.513 359.418 123.981C359.563 125.449 359.708 126.602 359.853 126.602Z" fill="#B6B3B3"/>
<path d="M359.853 137.086C359.999 137.086 360.289 135.933 360.289 134.465C360.289 132.997 360.144 131.844 359.853 131.844C359.708 131.844 359.418 132.997 359.418 134.465C359.563 135.933 359.708 137.086 359.853 137.086Z" fill="#B6B3B3"/>
<path d="M359.853 147.573C359.999 147.573 360.289 146.419 360.289 144.951C360.289 143.483 360.144 142.33 359.853 142.33C359.708 142.33 359.418 143.483 359.418 144.951C359.563 146.419 359.708 147.573 359.853 147.573Z" fill="#B6B3B3"/>
<path d="M359.853 158.057C359.999 158.057 360.289 156.904 360.289 155.436C360.289 153.968 360.144 152.814 359.853 152.814C359.708 152.814 359.418 153.968 359.418 155.436C359.563 156.904 359.708 158.057 359.853 158.057Z" fill="#B6B3B3"/>
<path d="M359.853 168.543C359.999 168.543 360.289 167.39 360.289 165.922C360.289 164.454 360.144 163.301 359.853 163.301C359.708 163.301 359.418 164.454 359.418 165.922C359.563 167.39 359.708 168.543 359.853 168.543Z" fill="#B6B3B3"/>
<path d="M359.853 179.028C359.999 179.028 360.289 177.874 360.289 176.407C360.289 174.939 360.144 173.785 359.853 173.785C359.708 173.785 359.418 174.939 359.418 176.407C359.563 177.874 359.708 179.028 359.853 179.028Z" fill="#B6B3B3"/>
<path d="M359.853 189.514C359.999 189.514 360.289 188.361 360.289 186.893C360.289 185.425 360.144 184.271 359.853 184.271C359.708 184.271 359.418 185.425 359.418 186.893C359.563 188.361 359.708 189.514 359.853 189.514Z" fill="#B6B3B3"/>
<path d="M358.549 199.055C358.549 199.16 359.129 199.265 359.855 199.265H360.146V199.055C360.146 198.635 360.291 198.006 360.291 197.377C360.291 195.909 360.146 194.756 359.855 194.756C359.71 194.756 359.42 195.909 359.42 197.377C359.42 198.006 359.42 198.531 359.565 199.055L359.855 198.845C359.129 198.845 358.549 198.95 358.549 199.055Z" fill="#B6B3B3"/>
<path d="M344.033 199.16C344.033 199.265 345.63 199.37 347.662 199.37C349.694 199.37 351.291 199.265 351.291 199.055C351.291 198.951 349.694 198.846 347.662 198.846C345.63 198.846 344.033 198.951 344.033 199.16Z" fill="#B6B3B3"/>
<path d="M329.516 199.266C329.516 199.371 331.112 199.475 333.145 199.475C335.177 199.475 336.774 199.371 336.774 199.161C336.774 199.056 335.177 198.951 333.145 198.951C331.112 198.951 329.516 199.056 329.516 199.266Z" fill="#B6B3B3"/>
<path d="M315 199.369C315 199.474 316.597 199.579 318.629 199.579C320.661 199.579 322.258 199.474 322.258 199.264C322.258 199.055 320.661 199.055 318.629 199.055C316.597 199.055 315 199.16 315 199.369Z" fill="#B6B3B3"/>
</g>
<g clip-path="url(#clip3_5220_158516)">
<path d="M85.2008 60.9033C85.0008 60.9033 84.6008 59.4722 84.6008 57.6509C84.6008 55.8295 84.8008 54.3984 85.2008 54.3984C85.4008 54.3984 85.8008 55.8295 85.8008 57.6509C85.6008 59.4722 85.4008 60.9033 85.2008 60.9033Z" fill="#B6B3B3"/>
<path d="M85.2008 73.9131C85.0008 73.9131 84.6008 72.482 84.6008 70.6606C84.6008 68.8393 84.8008 67.4082 85.2008 67.4082C85.4008 67.4082 85.8008 68.8393 85.8008 70.6606C85.6008 72.482 85.4008 73.9131 85.2008 73.9131Z" fill="#B6B3B3"/>
<path d="M85.2008 86.9228C85.0008 86.9228 84.6008 85.4918 84.6008 83.6704C84.6008 81.849 84.8008 80.418 85.2008 80.418C85.4008 80.418 85.8008 81.849 85.8008 83.6704C85.6008 85.4918 85.4008 86.9228 85.2008 86.9228Z" fill="#B6B3B3"/>
<path d="M85.2008 99.9326C85.0008 99.9326 84.6008 98.5015 84.6008 96.6802C84.6008 94.8588 84.8008 93.4277 85.2008 93.4277C85.4008 93.4277 85.8008 94.8588 85.8008 96.6802C85.6008 98.5015 85.4008 99.9326 85.2008 99.9326Z" fill="#B6B3B3"/>
<path d="M85.2008 112.942C85.0008 112.942 84.6008 111.511 84.6008 109.69C84.6008 107.869 84.8008 106.438 85.2008 106.438C85.4008 106.438 85.8008 107.869 85.8008 109.69C85.6008 111.511 85.4008 112.942 85.2008 112.942Z" fill="#B6B3B3"/>
<path d="M85.2008 125.952C85.0008 125.952 84.6008 124.521 84.6008 122.7C84.6008 120.878 84.8008 119.447 85.2008 119.447C85.4008 119.447 85.8008 120.878 85.8008 122.7C85.6008 124.521 85.4008 125.952 85.2008 125.952Z" fill="#B6B3B3"/>
<path d="M85.2008 138.962C85.0008 138.962 84.6008 137.531 84.6008 135.709C84.6008 133.888 84.8008 132.457 85.2008 132.457C85.4008 132.457 85.8008 133.888 85.8008 135.709C85.6008 137.531 85.4008 138.962 85.2008 138.962Z" fill="#B6B3B3"/>
<path d="M85.2008 151.972C85.0008 151.972 84.6008 150.541 84.6008 148.719C84.6008 146.898 84.8008 145.467 85.2008 145.467C85.4008 145.467 85.8008 146.898 85.8008 148.719C85.6008 150.541 85.4008 151.972 85.2008 151.972Z" fill="#B6B3B3"/>
<path d="M85.2008 164.981C85.0008 164.981 84.6008 163.55 84.6008 161.729C84.6008 159.908 84.8008 158.477 85.2008 158.477C85.4008 158.477 85.8008 159.908 85.8008 161.729C85.6008 163.55 85.4008 164.981 85.2008 164.981Z" fill="#B6B3B3"/>
<path d="M85.2008 177.991C85.0008 177.991 84.6008 176.56 84.6008 174.739C84.6008 172.917 84.8008 171.486 85.2008 171.486C85.4008 171.486 85.8008 172.917 85.8008 174.739C85.6008 176.56 85.4008 177.991 85.2008 177.991Z" fill="#B6B3B3"/>
<path d="M87 189.83C87 189.96 86.2 190.09 85.2 190.09H84.8V189.83C84.8 189.31 84.6 188.529 84.6 187.749C84.6 185.927 84.8 184.496 85.2 184.496C85.4 184.496 85.8 185.927 85.8 187.749C85.8 188.529 85.8 189.18 85.6 189.83L85.2 189.57C86.2 189.57 87 189.7 87 189.83Z" fill="#B6B3B3"/>
<path d="M107 189.961C107 190.091 104.8 190.221 102 190.221C99.2 190.221 97 190.091 97 189.831C97 189.7 99.2 189.57 102 189.57C104.8 189.57 107 189.7 107 189.961Z" fill="#B6B3B3"/>
<path d="M127 190.09C127 190.22 124.8 190.35 122 190.35C119.2 190.35 117 190.22 117 189.959C117 189.829 119.2 189.699 122 189.699C124.8 189.699 127 189.829 127 190.09Z" fill="#B6B3B3"/>
<path d="M147 190.218C147 190.349 144.8 190.479 142 190.479C139.2 190.479 137 190.349 137 190.088C137 189.828 139.2 189.828 142 189.828C144.8 189.828 147 189.958 147 190.218Z" fill="#B6B3B3"/>
</g>
<g clip-path="url(#clip4_5220_158516)">
<path d="M47.9375 280H9.68945V332.409H47.9375V280Z" fill="#F5F5F5"/>
<path d="M38.248 286.59H0V338.999H38.248V286.59Z" fill="#E0E0E0"/>
</g>
<path d="M119.16 36.8964C119.16 36.8964 119.079 36.8964 118.836 36.8964C118.593 36.8964 118.269 36.8964 117.865 36.8964C117.055 36.8964 115.76 36.8964 114.141 36.8964C110.903 36.8964 106.208 36.8964 100.298 36.9782C88.479 36.9782 71.8837 37.0601 52.6171 37.0601H52.4552V36.8964C51.4837 33.4583 52.0504 29.5291 54.3171 26.4185C56.5028 23.3897 60.3076 21.4251 64.1933 21.507L64.0314 21.7526C63.7076 20.7703 63.6266 19.6242 63.6266 18.4782C63.7885 14.7127 65.8933 11.111 69.0504 9.47379C72.2076 7.75477 76.1742 7.83662 79.1695 9.55565L78.9266 9.63751C80.6266 5.38087 84.2695 2.35211 88.1552 0.960518C92.1218 -0.512934 96.4933 -0.267359 99.8933 1.53353C103.374 3.33441 105.803 6.36317 107.179 9.55565C108.555 12.7481 108.798 16.1862 108.069 19.2149L107.908 19.0512C109.85 18.8057 111.793 19.1331 113.412 19.8698C115.031 20.5247 116.489 21.5888 117.541 22.7349C118.108 23.3079 118.512 23.9627 118.836 24.6176C119.16 25.2725 119.403 25.9273 119.484 26.5822C119.808 27.8919 119.889 29.1198 119.969 30.184C120.05 32.3941 119.808 34.1132 119.565 35.1773C119.403 35.7503 119.322 36.1596 119.241 36.4052C119.16 36.7326 119.16 36.8964 119.16 36.8964Z" fill="#EBEBEB"/>
<g clip-path="url(#clip5_5220_158516)">
<path d="M285.34 296.853C285.34 296.999 283.749 297.289 281.724 297.289C279.699 297.289 278.107 297.144 278.107 296.853C278.107 296.708 279.699 296.418 281.724 296.418C283.749 296.563 285.34 296.708 285.34 296.853Z" fill="#B6B3B3"/>
<path d="M299.807 296.853C299.807 296.999 298.216 297.289 296.191 297.289C294.165 297.289 292.574 297.144 292.574 296.853C292.574 296.708 294.165 296.418 296.191 296.418C298.216 296.563 299.807 296.708 299.807 296.853Z" fill="#B6B3B3"/>
<path d="M314.272 296.853C314.272 296.999 312.681 297.289 310.656 297.289C308.63 297.289 307.039 297.144 307.039 296.853C307.039 296.708 308.63 296.418 310.656 296.418C312.681 296.563 314.272 296.708 314.272 296.853Z" fill="#B6B3B3"/>
<path d="M328.739 296.853C328.739 296.999 327.148 297.289 325.122 297.289C323.097 297.289 321.506 297.144 321.506 296.853C321.506 296.708 323.097 296.418 325.122 296.418C327.148 296.563 328.739 296.708 328.739 296.853Z" fill="#B6B3B3"/>
<path d="M343.204 296.853C343.204 296.999 341.612 297.289 339.587 297.289C337.562 297.289 335.971 297.144 335.971 296.853C335.971 296.708 337.562 296.418 339.587 296.418C341.612 296.563 343.204 296.708 343.204 296.853Z" fill="#B6B3B3"/>
<path d="M357.671 296.853C357.671 296.999 356.079 297.289 354.054 297.289C352.029 297.289 350.438 297.144 350.438 296.853C350.438 296.708 352.029 296.418 354.054 296.418C356.079 296.563 357.671 296.708 357.671 296.853Z" fill="#B6B3B3"/>
<path d="M372.137 296.853C372.137 296.999 370.546 297.289 368.521 297.289C366.496 297.289 364.904 297.144 364.904 296.853C364.904 296.708 366.496 296.418 368.521 296.418C370.546 296.563 372.137 296.708 372.137 296.853Z" fill="#B6B3B3"/>
<path d="M386.602 296.853C386.602 296.999 385.011 297.289 382.986 297.289C380.96 297.289 379.369 297.144 379.369 296.853C379.369 296.708 380.96 296.418 382.986 296.418C385.011 296.563 386.602 296.708 386.602 296.853Z" fill="#B6B3B3"/>
<path d="M401.069 296.853C401.069 296.999 399.478 297.289 397.452 297.289C395.427 297.289 393.836 297.144 393.836 296.853C393.836 296.708 395.427 296.418 397.452 296.418C399.478 296.563 401.069 296.708 401.069 296.853Z" fill="#B6B3B3"/>
<path d="M415.534 296.853C415.534 296.999 413.943 297.289 411.917 297.289C409.892 297.289 408.301 297.144 408.301 296.853C408.301 296.708 409.892 296.418 411.917 296.418C413.943 296.563 415.534 296.708 415.534 296.853Z" fill="#B6B3B3"/>
<path d="M428.699 295.549C428.843 295.549 428.988 296.129 428.988 296.855V297.146H428.699C428.12 297.146 427.252 297.291 426.384 297.291C424.359 297.291 422.768 297.146 422.768 296.855C422.768 296.71 424.359 296.42 426.384 296.42C427.252 296.42 427.975 296.42 428.699 296.565L428.409 296.855C428.409 296.129 428.554 295.549 428.699 295.549Z" fill="#B6B3B3"/>
<path d="M428.844 281.033C428.989 281.033 429.133 282.63 429.133 284.662C429.133 286.694 428.989 288.291 428.699 288.291C428.555 288.291 428.41 286.694 428.41 284.662C428.41 282.63 428.555 281.033 428.844 281.033Z" fill="#B6B3B3"/>
<path d="M428.989 266.516C429.133 266.516 429.278 268.112 429.278 270.145C429.278 272.177 429.133 273.774 428.844 273.774C428.699 273.774 428.555 272.177 428.555 270.145C428.555 268.112 428.699 266.516 428.989 266.516Z" fill="#B6B3B3"/>
<path d="M429.131 252C429.276 252 429.421 253.597 429.421 255.629C429.421 257.661 429.276 259.258 428.987 259.258C428.697 259.258 428.697 257.661 428.697 255.629C428.697 253.597 428.842 252 429.131 252Z" fill="#B6B3B3"/>
</g>
<g clip-path="url(#clip6_5220_158516)">
<path d="M146.66 224.147C146.66 224.001 148.251 223.711 150.276 223.711C152.301 223.711 153.893 223.856 153.893 224.147C153.893 224.292 152.301 224.582 150.276 224.582C148.251 224.437 146.66 224.292 146.66 224.147Z" fill="#B6B3B3"/>
<path d="M132.193 224.147C132.193 224.001 133.784 223.711 135.809 223.711C137.835 223.711 139.426 223.856 139.426 224.147C139.426 224.292 137.835 224.582 135.809 224.582C133.784 224.437 132.193 224.292 132.193 224.147Z" fill="#B6B3B3"/>
<path d="M117.728 224.147C117.728 224.001 119.319 223.711 121.344 223.711C123.37 223.711 124.961 223.856 124.961 224.147C124.961 224.292 123.37 224.582 121.344 224.582C119.319 224.437 117.728 224.292 117.728 224.147Z" fill="#B6B3B3"/>
<path d="M103.261 224.147C103.261 224.001 104.852 223.711 106.878 223.711C108.903 223.711 110.494 223.856 110.494 224.147C110.494 224.292 108.903 224.582 106.878 224.582C104.852 224.437 103.261 224.292 103.261 224.147Z" fill="#B6B3B3"/>
<path d="M88.7963 224.147C88.7963 224.001 90.3875 223.711 92.4128 223.711C94.438 223.711 96.0293 223.856 96.0293 224.147C96.0293 224.292 94.438 224.582 92.4128 224.582C90.3875 224.437 88.7963 224.292 88.7963 224.147Z" fill="#B6B3B3"/>
<path d="M74.3295 224.147C74.3295 224.001 75.9208 223.711 77.946 223.711C79.9712 223.711 81.5625 223.856 81.5625 224.147C81.5625 224.292 79.9712 224.582 77.946 224.582C75.9208 224.437 74.3295 224.292 74.3295 224.147Z" fill="#B6B3B3"/>
<path d="M59.8627 224.147C59.8627 224.001 61.454 223.711 63.4792 223.711C65.5044 223.711 67.0957 223.856 67.0957 224.147C67.0957 224.292 65.5044 224.582 63.4792 224.582C61.454 224.437 59.8627 224.292 59.8627 224.147Z" fill="#B6B3B3"/>
<path d="M45.3978 224.147C45.3978 224.001 46.9891 223.711 49.0144 223.711C51.0396 223.711 52.6309 223.856 52.6309 224.147C52.6309 224.292 51.0396 224.582 49.0144 224.582C46.9891 224.437 45.3978 224.292 45.3978 224.147Z" fill="#B6B3B3"/>
<path d="M30.9311 224.147C30.9311 224.001 32.5223 223.711 34.5476 223.711C36.5728 223.711 38.1641 223.856 38.1641 224.147C38.1641 224.292 36.5728 224.582 34.5476 224.582C32.5223 224.437 30.9311 224.292 30.9311 224.147Z" fill="#B6B3B3"/>
<path d="M16.4662 224.147C16.4662 224.001 18.0575 223.711 20.0827 223.711C22.108 223.711 23.6992 223.856 23.6992 224.147C23.6992 224.292 22.108 224.582 20.0827 224.582C18.0575 224.437 16.4662 224.292 16.4662 224.147Z" fill="#B6B3B3"/>
<path d="M3.30136 225.451C3.1567 225.451 3.01203 224.871 3.01203 224.145V223.854H3.30136C3.88 223.854 4.74796 223.709 5.61592 223.709C7.64116 223.709 9.23242 223.854 9.23242 224.145C9.23242 224.29 7.64116 224.58 5.61592 224.58C4.74796 224.58 4.02466 224.58 3.30136 224.435L3.59067 224.145C3.59067 224.871 3.44602 225.451 3.30136 225.451Z" fill="#B6B3B3"/>
<path d="M3.15587 239.967C3.01121 239.967 2.86654 238.37 2.86654 236.338C2.86654 234.306 3.01121 232.709 3.30053 232.709C3.44519 232.709 3.58984 234.306 3.58984 236.338C3.58984 238.37 3.44519 239.967 3.15587 239.967Z" fill="#B6B3B3"/>
<path d="M3.01133 254.484C2.86667 254.484 2.72201 252.888 2.72201 250.855C2.72201 248.823 2.86668 247.226 3.156 247.226C3.30066 247.226 3.44531 248.823 3.44531 250.855C3.44531 252.888 3.30065 254.484 3.01133 254.484Z" fill="#B6B3B3"/>
<path d="M2.86875 269C2.72409 269 2.57943 267.403 2.57943 265.371C2.57943 263.339 2.72409 261.742 3.01341 261.742C3.30273 261.742 3.30273 263.339 3.30273 265.371C3.30273 267.403 3.15807 269 2.86875 269Z" fill="#B6B3B3"/>
</g>
<defs>
<clipPath id="clip0_5220_158516">
<rect width="63.4" height="30.1" fill="white" transform="translate(324 61.3242) rotate(-32.7779)"/>
</clipPath>
<clipPath id="clip1_5220_158516">
<rect width="57" height="38" fill="white" transform="translate(388 206)"/>
</clipPath>
<clipPath id="clip2_5220_158516">
<rect width="108" height="45" fill="white" transform="matrix(0 1 1 0 315 92)"/>
</clipPath>
<clipPath id="clip3_5220_158516">
<rect width="134" height="62" fill="white" transform="matrix(0 1 -1 0 147 57)"/>
</clipPath>
<clipPath id="clip4_5220_158516">
<rect width="48" height="59" fill="white" transform="translate(0 280)"/>
</clipPath>
<clipPath id="clip5_5220_158516">
<rect width="149" height="45" fill="white" transform="translate(281 252)"/>
</clipPath>
<clipPath id="clip6_5220_158516">
<rect width="149" height="45" fill="white" transform="matrix(-1 0 0 -1 151 269)"/>
</clipPath>
</defs>
</svg>
