<svg width="25" height="24" viewBox="0 0 25 24" fill="none" xmlns="http://www.w3.org/2000/svg">
<path d="M8.63797 14.5099C8.01797 14.2799 7.46796 13.8299 7.11796 13.1899C6.31796 11.7299 6.80797 9.82989 8.22796 8.94989L10.568 7.49988C11.978 6.61988 13.798 7.09987 14.598 8.54987C15.398 10.0099 14.908 11.9099 13.488 12.7899L13.178 13.0099" stroke="#7B7B7B" stroke-width="1.5" stroke-linecap="round" stroke-linejoin="round"/>
<path d="M16.8065 9.4502C17.4265 9.6802 17.9765 10.1302 18.3265 10.7702C19.1265 12.2302 18.6365 14.1302 17.2165 15.0102L14.8765 16.4602C13.4665 17.3402 11.6465 16.8602 10.8465 15.4102C10.0465 13.9502 10.5365 12.0502 11.9565 11.1702L12.2665 10.9502" stroke="#7B7B7B" stroke-width="1.5" stroke-linecap="round" stroke-linejoin="round"/>
<path d="M12.6973 22C18.2201 22 22.6973 17.5228 22.6973 12C22.6973 6.47715 18.2201 2 12.6973 2C7.17442 2 2.69727 6.47715 2.69727 12C2.69727 17.5228 7.17442 22 12.6973 22Z" stroke="#7B7B7B" stroke-width="1.5" stroke-linecap="round" stroke-linejoin="round"/>
</svg>
