<svg width="21" height="21" viewBox="0 0 21 21" fill="none" xmlns="http://www.w3.org/2000/svg">
<path d="M15.8042 13.4462L14.6257 12.2677L15.8042 11.0892C17.4314 9.462 17.4314 6.82381 15.8042 5.19662C14.177 3.56944 11.5388 3.56944 9.91165 5.19662L8.73313 6.37514L7.55462 5.19662L8.73313 4.01811C11.0112 1.74006 14.7046 1.74006 16.9827 4.01811C19.2607 6.29617 19.2607 9.98966 16.9827 12.2677L15.8042 13.4462ZM13.4472 15.8032L12.2687 16.9817C9.99065 19.2598 6.29715 19.2598 4.01909 16.9817C1.74103 14.7037 1.74103 11.0102 4.01909 8.73216L5.1976 7.55365L6.37611 8.73216L5.1976 9.91066C3.57042 11.5378 3.57042 14.1761 5.1976 15.8032C6.82478 17.4304 9.46298 17.4304 11.0901 15.8032L12.2687 14.6247L13.4472 15.8032ZM12.8579 6.96439L14.0364 8.14291L8.14387 14.0355L6.96537 12.8569L12.8579 6.96439Z" fill="#322972"/>
</svg>
