<svg width="21" height="21" viewBox="0 0 21 21" fill="none" xmlns="http://www.w3.org/2000/svg">
<path d="M7.33335 18.4632H14C17.35 18.4632 17.95 17.1216 18.125 15.4882L18.75 8.82155C18.975 6.78822 18.3917 5.12988 14.8334 5.12988H6.50002C2.94169 5.12988 2.35835 6.78822 2.58335 8.82155L3.20835 15.4882C3.38335 17.1216 3.98335 18.4632 7.33335 18.4632Z" stroke="#322972" stroke-width="1.5" stroke-miterlimit="10" stroke-linecap="round" stroke-linejoin="round"/>
<path d="M7.33203 5.12972V4.46305C7.33203 2.98805 7.33203 1.79639 9.9987 1.79639H11.332C13.9987 1.79639 13.9987 2.98805 13.9987 4.46305V5.12972" stroke="#322972" stroke-width="1.5" stroke-miterlimit="10" stroke-linecap="round" stroke-linejoin="round"/>
<path d="M12.3333 10.9632V11.7965C12.3333 11.8049 12.3333 11.8049 12.3333 11.8132C12.3333 12.7215 12.325 13.4632 10.6667 13.4632C9.01667 13.4632 9 12.7299 9 11.8215V10.9632C9 10.1299 9 10.1299 9.83333 10.1299H11.5C12.3333 10.1299 12.3333 10.1299 12.3333 10.9632Z" stroke="#322972" stroke-width="1.5" stroke-miterlimit="10" stroke-linecap="round" stroke-linejoin="round"/>
<path d="M18.707 9.29639C16.782 10.6964 14.582 11.5297 12.332 11.8131" stroke="#322972" stroke-width="1.5" stroke-miterlimit="10" stroke-linecap="round" stroke-linejoin="round"/>
<path d="M2.84961 9.52148C4.72461 10.8048 6.84128 11.5798 8.99961 11.8215" stroke="#322972" stroke-width="1.5" stroke-miterlimit="10" stroke-linecap="round" stroke-linejoin="round"/>
</svg>
