<svg width="159" height="40" viewBox="0 0 159 40" fill="none" xmlns="http://www.w3.org/2000/svg">
<path fill-rule="evenodd" clip-rule="evenodd" d="M49.7204 22.5827C51.4031 21.8286 52.0759 20.4719 52.0759 19.06C52.0759 15.3815 49.4102 13.7695 45.8388 13.7695H37.2461V31.9933H45.8388C49.5916 31.9933 52.6173 30.6928 52.6173 26.6382C52.619 25.4943 51.8429 23.2346 49.7204 22.5827ZM40.6108 16.8888H45.8388C48.0122 16.8888 48.6858 18.3016 48.6858 19.1374C48.6858 20.186 47.9867 21.1009 45.8388 21.1009H40.6108V16.8888ZM45.8388 28.7957H40.6108V24.1147H45.8388C47.236 24.1147 49.2281 24.9726 49.2281 26.6101C49.2289 28.3276 47.236 28.7957 45.8388 28.7957ZM64.9128 19.1783L64.812 20.9443C64.0867 19.6677 62.4564 18.8651 60.7449 18.8651C57.0166 18.8387 54.0934 21.1528 54.0934 25.5717C54.0934 30.0689 56.8895 32.4086 60.6678 32.3805C62.0904 32.3542 64.0833 31.6265 64.8086 30.1183L64.9637 31.9907H67.9395V19.1766L64.9128 19.1783ZM61.0304 29.4766C58.9341 29.4766 57.2522 28.0203 57.2522 25.5768C57.2522 23.1333 58.9341 21.7026 61.0304 21.7026C65.9982 21.7026 65.9982 29.4715 61.0304 29.4715V29.4766ZM82.8735 25.2602C82.8735 23.8559 82.5117 22.5827 81.528 21.4643L82.9515 19.6447L80.6222 17.8769L79.3512 19.4889C78.4717 18.8932 77.4362 18.7612 76.4271 18.7612C72.8556 18.7612 69.9569 21.2567 69.9569 25.2602C69.9569 29.2638 72.4413 31.7073 76.4271 31.7073C78.0056 31.7073 79.6622 32.5125 79.6622 34.2802C79.6622 36.0479 78.2387 37.0361 76.4271 37.0361C74.6155 37.0361 73.0886 35.9441 73.0886 34.2802H69.9535C69.9535 37.7382 72.7226 39.9996 76.4237 39.9996C80.1248 39.9996 82.8159 37.8157 82.8159 34.2802C82.8159 32.6427 82.2982 31.109 80.1765 30.0434C82.2787 29.0817 82.8735 26.8458 82.8735 25.2602ZM76.4339 28.8212C74.596 28.8212 73.0954 27.4952 73.0954 25.2602C73.0954 23.0252 74.596 21.6465 76.4339 21.6465C78.2454 21.6465 79.7469 23.0499 79.7469 25.2602C79.7469 27.4705 78.2412 28.8212 76.4296 28.8212H76.4339ZM90.1249 24.1164C88.4946 24.0125 87.7439 23.5444 87.7439 22.712C87.7439 21.906 88.5717 21.4354 90.0732 21.4354C91.2891 21.4354 92.3245 21.7214 93.2303 22.5793L94.9902 20.4992C93.515 19.1995 92.0144 18.8097 90.0215 18.8097C87.6922 18.8097 84.6376 19.8489 84.6376 22.8099C84.6376 25.7207 87.5109 26.605 89.9173 26.7871C91.7297 26.8909 92.4542 27.2552 92.4542 28.1387C92.4542 29.0749 91.3408 29.6987 90.1503 29.6706C88.7268 29.6451 86.6568 28.891 85.751 27.8774L84.1979 30.1387C86.062 32.0886 88.0803 32.4265 90.0986 32.4265C93.748 32.4265 95.5859 30.4766 95.5859 28.2153C95.5816 24.8177 92.527 24.2721 90.1206 24.1164H90.1249Z" fill="#322972"/>
<path fill-rule="evenodd" clip-rule="evenodd" d="M109.087 21.5916V24.6215H113.663V27.8054C112.257 28.9357 111.03 29.2438 109.624 29.2438C105.176 29.2438 103.464 26.1884 103.464 23.235C103.464 19.5379 105.79 16.6101 109.624 16.6101C111.184 16.6101 112.973 17.2527 114.175 18.4076L116.27 16.2552C114.501 14.4959 112.113 13.5086 109.624 13.5078C103.31 13.5078 100.166 18.1812 100.166 23.2393C100.166 27.9637 102.901 32.4065 109.624 32.4065C112.768 32.4065 114.992 31.1996 116.757 29.1723V21.5975L109.087 21.5916ZM128.745 19.3319V25.7875C128.745 27.7263 127.441 29.3434 125.525 29.3434C123.532 29.3434 122.484 27.8803 122.484 25.9543V19.3319H119.365V25.9824C119.365 29.9111 121.563 32.1954 124.579 32.1954C126.343 32.1954 127.545 31.5792 128.849 30.2958L129.053 31.9903H131.835V19.3319H128.745ZM141.271 18.9983C139.994 18.9983 138.689 19.2298 137.718 20.7958L137.488 19.3319H134.599V31.9912H137.718V25.3151C137.718 22.978 139.227 22.1056 140.862 22.1056C141.885 22.1056 142.472 22.3882 143.112 22.9269L144.518 20.2034C143.828 19.5123 142.575 18.9983 141.271 18.9983ZM155.408 19.3319V25.7875C155.408 27.7263 154.104 29.3434 152.188 29.3434C150.194 29.3434 149.146 27.8803 149.146 25.9543V19.3319H146.028V25.9824C146.028 29.9111 148.226 32.1954 151.243 32.1954C153.007 32.1954 154.208 31.5792 155.511 30.2958L155.716 31.9903H158.502V19.3319H155.408Z" fill="#ED701E"/>
<path d="M20.3768 10.1279H20.1515C20.1455 10.053 20.1396 9.97809 20.1328 9.90234H20.3582L20.3768 10.1279Z" fill="white"/>
<path fill-rule="evenodd" clip-rule="evenodd" d="M27.4797 34.0125L25.3266 11.2575C25.2563 10.5162 24.7199 9.9034 23.9785 9.9034H20.3588L20.3774 10.1289H20.152C20.1461 10.054 20.1402 9.97915 20.1334 9.9034H20.3588V9.88382C20.219 8.23439 19.9622 6.75433 19.5962 5.48279C18.5481 1.84518 16.6653 0 14.0064 0C11.3475 0 9.46647 1.84518 8.41833 5.48279C8.05229 6.75348 7.79555 8.23439 7.65574 9.88382V9.9034H4.0165C3.27509 9.9034 2.73873 10.5162 2.66841 11.2575L0.511127 34.0125C0.356067 35.6441 1.84566 36.9914 3.47675 36.9914H24.5132C26.1451 36.9931 27.6347 35.6441 27.4797 34.0125ZM9.32242 5.78748C10.2333 2.62394 11.8093 1.02132 14.0064 1.02132C16.2035 1.02132 17.7795 2.62479 18.6913 5.78748C19.0302 6.97051 19.2742 8.3561 19.4106 9.90425H8.6022C8.73862 8.3544 8.98095 6.96966 9.32242 5.78748ZM19.6157 31.1264C18.4294 31.7614 17.2491 31.6839 16.0739 31.1264C14.9571 30.5945 14.1013 29.757 13.4133 28.7391C12.9168 28.0037 12.3584 27.3254 11.6559 26.7816C11.1103 26.356 10.5087 26.0735 9.80116 26.0794C8.69201 26.0888 7.64557 26.9671 7.47865 28.0676C7.35409 28.8821 7.65743 29.5604 8.26496 30.0992C9.10127 30.8413 10.0698 30.9341 11.1009 30.6387C11.7496 30.4651 12.3397 30.1191 12.8091 29.637C12.8786 29.5681 12.9464 29.4966 13.015 29.4276C13.0837 29.3587 13.1549 29.2617 13.2591 29.3604C13.3633 29.4591 13.2811 29.5366 13.2159 29.6157C12.5143 30.449 11.7398 30.94 10.6646 31.18C8.95129 31.5622 7.48797 30.5639 6.98551 29.3817C6.53134 28.3161 6.68725 27.3135 7.38714 26.4088C7.81062 25.8507 8.40002 25.4426 9.06992 25.2436C9.03094 23.3635 10.1909 21.7541 11.8246 20.9839C11.4108 20.4099 11.1398 19.7448 11.034 19.0442C10.7985 17.5386 11.7042 15.9709 13.1099 15.49C14.5157 15.0091 16.0696 15.6517 16.7788 16.9863C17.411 18.1778 17.3338 19.3625 16.7788 20.543C16.6834 20.7451 16.5765 20.9414 16.4586 21.1311C18.0007 21.9822 19.0403 23.6036 18.9158 25.4479C19.9139 25.7262 20.774 26.4692 21.1087 27.4505C21.5815 28.8463 20.9434 30.4141 19.6157 31.1264Z" fill="#ED701E"/>
<path fill-rule="evenodd" clip-rule="evenodd" d="M20.3768 10.1279H20.1515C20.1455 10.053 20.1396 9.97809 20.1328 9.90234H20.3582L20.3768 10.1279Z" fill="white"/>
<path fill-rule="evenodd" clip-rule="evenodd" d="M15.644 20.0077C15.5074 20.2258 15.3554 20.4337 15.189 20.6298C14.1784 20.3855 13.1176 20.4574 12.1488 20.8358C11.7278 20.2005 11.5072 19.4525 11.5159 18.6893C11.5226 17.8578 11.8692 17.1676 12.5081 16.6399C12.7598 16.4298 13.0555 16.2797 13.3731 16.2006C13.6908 16.1216 14.0221 16.1158 14.3423 16.1836C14.6625 16.2513 14.9633 16.391 15.2222 16.592C15.4811 16.7931 15.6913 17.0504 15.8372 17.3446C16.3058 18.2706 16.1761 19.1591 15.644 20.0077Z" fill="#ED701E"/>
<path fill-rule="evenodd" clip-rule="evenodd" d="M19.2488 30.1829C18.3269 30.6518 17.4423 30.5233 16.5975 29.9863C15.7739 29.4654 15.1427 28.7462 14.5962 27.9479C14.0415 27.1177 13.322 26.4116 12.483 25.8738C11.7458 25.4082 10.9578 25.1001 10.0215 25.0907C10.063 23.1077 11.8695 21.3672 13.9946 21.3672C16.2103 21.3672 18.0693 23.2507 17.9651 25.324C17.8311 25.3265 17.6975 25.3385 17.5652 25.3597C16.3417 25.552 15.4706 26.0967 14.7004 27.0432C14.6419 27.1147 14.586 27.1921 14.669 27.2738C14.7521 27.3555 14.8275 27.2806 14.8877 27.2168C15.7206 26.3291 16.667 25.827 17.91 25.838C18.7379 25.8448 19.4251 26.1938 19.9504 26.8347C20.1603 27.0875 20.3105 27.3849 20.3896 27.7044C20.4688 28.0239 20.4748 28.3573 20.4073 28.6795C20.3398 29.0017 20.2005 29.3044 19.9998 29.5648C19.7992 29.8251 19.5424 30.0365 19.2488 30.1829Z" fill="#ED701E"/>
</svg>
