<svg width="21" height="20" viewBox="0 0 21 20" fill="none" xmlns="http://www.w3.org/2000/svg">
<path d="M14.2324 18.9582H7.56576C5.04909 18.9582 3.60742 17.5165 3.60742 14.9998V6.87484C3.60742 4.24984 4.94076 2.9165 7.56576 2.9165C7.90742 2.9165 8.19076 3.19984 8.19076 3.5415C8.19076 3.87484 8.32409 4.1915 8.55742 4.42484C8.79076 4.65817 9.10742 4.7915 9.44076 4.7915H12.3574C13.0491 4.7915 13.6074 4.23317 13.6074 3.5415C13.6074 3.19984 13.8908 2.9165 14.2324 2.9165C16.8574 2.9165 18.1908 4.24984 18.1908 6.87484V14.9998C18.1908 17.5165 16.7491 18.9582 14.2324 18.9582ZM7.02407 4.18317C5.7074 4.29151 4.85742 4.88317 4.85742 6.87484V14.9998C4.85742 16.8498 5.71576 17.7082 7.56576 17.7082H14.2324C16.0824 17.7082 16.9408 16.8498 16.9408 14.9998V6.87484C16.9408 4.88317 16.0908 4.29984 14.7741 4.18317C14.4908 5.24984 13.5158 6.0415 12.3574 6.0415H9.44076C8.77409 6.0415 8.14909 5.78317 7.67409 5.30817C7.35743 4.9915 7.14073 4.60817 7.02407 4.18317Z" fill="#322972"/>
<path d="M12.3561 6.0415H9.43945C8.77279 6.0415 8.14779 5.78317 7.67279 5.30817C7.19779 4.83317 6.93945 4.20817 6.93945 3.5415C6.93945 2.1665 8.06445 1.0415 9.43945 1.0415H12.3561C13.0228 1.0415 13.6478 1.29984 14.1228 1.77484C14.5978 2.24984 14.8561 2.87484 14.8561 3.5415C14.8561 4.9165 13.7311 6.0415 12.3561 6.0415ZM9.43945 2.2915C8.74779 2.2915 8.18945 2.84984 8.18945 3.5415C8.18945 3.87484 8.32279 4.1915 8.55612 4.42484C8.78946 4.65817 9.10612 4.7915 9.43945 4.7915H12.3561C13.0478 4.7915 13.6061 4.23317 13.6061 3.5415C13.6061 3.20817 13.4728 2.89151 13.2395 2.65817C13.0061 2.42484 12.6895 2.2915 12.3561 2.2915H9.43945Z" fill="#322972"/>
<path d="M10.8978 11.4585H7.56445C7.22279 11.4585 6.93945 11.1752 6.93945 10.8335C6.93945 10.4918 7.22279 10.2085 7.56445 10.2085H10.8978C11.2395 10.2085 11.5228 10.4918 11.5228 10.8335C11.5228 11.1752 11.2395 11.4585 10.8978 11.4585Z" fill="#322972"/>
<path d="M14.2311 14.7915H7.56445C7.22279 14.7915 6.93945 14.5082 6.93945 14.1665C6.93945 13.8248 7.22279 13.5415 7.56445 13.5415H14.2311C14.5728 13.5415 14.8561 13.8248 14.8561 14.1665C14.8561 14.5082 14.5728 14.7915 14.2311 14.7915Z" fill="#322972"/>
</svg>
