<svg width="25" height="24" viewBox="0 0 25 24" fill="none" xmlns="http://www.w3.org/2000/svg">
<path d="M14.5 22.7505H10.5C5.07 22.7505 2.75 20.4305 2.75 15.0005V9.00049C2.75 3.57049 5.07 1.25049 10.5 1.25049H14.5C19.93 1.25049 22.25 3.57049 22.25 9.00049V15.0005C22.25 20.4305 19.93 22.7505 14.5 22.7505ZM10.5 2.75049C5.89 2.75049 4.25 4.39049 4.25 9.00049V15.0005C4.25 19.6105 5.89 21.2505 10.5 21.2505H14.5C19.11 21.2505 20.75 19.6105 20.75 15.0005V9.00049C20.75 4.39049 19.11 2.75049 14.5 2.75049H10.5Z" fill="#322972"/>
<path d="M15.5 10.8306H9.5C8.26 10.8306 7.25 9.82057 7.25 8.58057V7.58057C7.25 6.34057 8.26 5.33057 9.5 5.33057H15.5C16.74 5.33057 17.75 6.34057 17.75 7.58057V8.58057C17.75 9.82057 16.74 10.8306 15.5 10.8306ZM9.5 6.83057C9.09 6.83057 8.75 7.17057 8.75 7.58057V8.58057C8.75 8.99057 9.09 9.33057 9.5 9.33057H15.5C15.91 9.33057 16.25 8.99057 16.25 8.58057V7.58057C16.25 7.17057 15.91 6.83057 15.5 6.83057H9.5Z" fill="#322972"/>
<path d="M8.65016 14.9203C8.52016 14.9203 8.39016 14.8903 8.27016 14.8403C8.15016 14.7903 8.04016 14.7203 7.95016 14.6303C7.76016 14.4403 7.66016 14.1903 7.66016 13.9203C7.66016 13.7903 7.68016 13.6603 7.73016 13.5403C7.78016 13.4103 7.85016 13.3103 7.95016 13.2103C7.99016 13.1703 8.04016 13.1203 8.10016 13.0903C8.15016 13.0503 8.21016 13.0203 8.27016 13.0003C8.33016 12.9703 8.40016 12.9503 8.46016 12.9403C8.78016 12.8703 9.13016 12.9803 9.36016 13.2103C9.45016 13.3003 9.53016 13.4103 9.58016 13.5403C9.63016 13.6603 9.66016 13.7903 9.66016 13.9203C9.66016 14.1903 9.55016 14.4403 9.36016 14.6303C9.17016 14.8203 8.92016 14.9203 8.65016 14.9203Z" fill="#322972"/>
<path d="M12.6602 14.9204C12.3902 14.9204 12.1402 14.8204 11.9502 14.6304C11.7602 14.4404 11.6602 14.1904 11.6602 13.9204C11.6602 13.7904 11.6802 13.6604 11.7302 13.5404C11.7802 13.4104 11.8502 13.3104 11.9502 13.2104C11.9902 13.1704 12.0402 13.1204 12.1002 13.0904C12.1502 13.0504 12.2102 13.0204 12.2702 13.0004C12.3302 12.9704 12.4002 12.9504 12.4602 12.9404C12.6502 12.9004 12.8502 12.9204 13.0402 13.0004C13.1602 13.0504 13.2702 13.1204 13.3602 13.2104C13.4502 13.3104 13.5302 13.4104 13.5802 13.5404C13.6302 13.6604 13.6602 13.7904 13.6602 13.9204C13.6602 14.1904 13.5502 14.4404 13.3602 14.6304C13.1702 14.8204 12.9202 14.9204 12.6602 14.9204Z" fill="#322972"/>
<path d="M16.6502 14.9206C16.5202 14.9206 16.3902 14.8906 16.2702 14.8406C16.1502 14.7906 16.0402 14.7206 15.9502 14.6306C15.8502 14.5306 15.7802 14.4206 15.7302 14.3006C15.6802 14.1806 15.6602 14.0506 15.6602 13.9206C15.6602 13.7906 15.6802 13.6606 15.7302 13.5406C15.7802 13.4106 15.8502 13.3106 15.9502 13.2106C16.3202 12.8406 16.9902 12.8406 17.3602 13.2106C17.5502 13.4006 17.6602 13.6606 17.6602 13.9206C17.6602 14.1906 17.5502 14.4406 17.3602 14.6306C17.1802 14.8106 16.9302 14.9206 16.6502 14.9206Z" fill="#322972"/>
<path d="M8.66039 18.9204C8.39039 18.9204 8.14039 18.8204 7.95039 18.6304C7.76039 18.4404 7.65039 18.1904 7.65039 17.9204C7.65039 17.6604 7.76039 17.4004 7.95039 17.2104C7.99039 17.1704 8.05039 17.1204 8.10039 17.0904C8.15039 17.0504 8.21039 17.0204 8.27039 17.0004C8.33039 16.9704 8.40039 16.9504 8.46039 16.9404C8.79039 16.8804 9.13039 16.9804 9.36039 17.2104C9.41039 17.2604 9.45039 17.3104 9.49039 17.3604C9.52039 17.4204 9.55039 17.4804 9.58039 17.5404C9.60039 17.6004 9.62039 17.6604 9.64039 17.7204C9.65039 17.7904 9.66039 17.8504 9.66039 17.9204C9.66039 18.1904 9.55039 18.4404 9.36039 18.6304C9.17039 18.8204 8.92039 18.9204 8.66039 18.9204Z" fill="#322972"/>
<path d="M12.6604 18.9204C12.3904 18.9204 12.1404 18.8204 11.9504 18.6304C11.7604 18.4404 11.6504 18.1904 11.6504 17.9204C11.6504 17.6604 11.7604 17.4004 11.9504 17.2104C12.1804 16.9804 12.5304 16.8804 12.8504 16.9404C12.9104 16.9504 12.9804 16.9704 13.0404 17.0004C13.1004 17.0204 13.1604 17.0504 13.2104 17.0904C13.2604 17.1204 13.3104 17.1704 13.3604 17.2104C13.5504 17.4004 13.6504 17.6604 13.6504 17.9204C13.6504 18.1904 13.5504 18.4404 13.3604 18.6304C13.1704 18.8204 12.9204 18.9204 12.6604 18.9204Z" fill="#322972"/>
<path d="M16.6502 18.9207C16.3902 18.9207 16.1402 18.8207 15.9502 18.6307C15.7602 18.4407 15.6602 18.1907 15.6602 17.9207C15.6602 17.6607 15.7602 17.4007 15.9502 17.2107C16.0402 17.1207 16.1502 17.0507 16.2702 17.0007C16.6402 16.8507 17.0902 16.9307 17.3602 17.2107C17.5502 17.4007 17.6502 17.6607 17.6502 17.9207C17.6502 18.1907 17.5502 18.4407 17.3602 18.6307C17.2702 18.7207 17.1602 18.7907 17.0402 18.8407C16.9202 18.8907 16.7902 18.9207 16.6502 18.9207Z" fill="#322972"/>
</svg>
