<svg width="21" height="21" viewBox="0 0 21 21" fill="none" xmlns="http://www.w3.org/2000/svg">
<path d="M3.14258 6.7002L10.5009 10.9585L17.8092 6.72517" stroke="#322972" stroke-width="1.3" stroke-linecap="round" stroke-linejoin="round"/>
<path d="M10.5 18.5085V10.9502" stroke="#322972" stroke-width="1.3" stroke-linecap="round" stroke-linejoin="round"/>
<path d="M18.5088 8.14199V12.8587C18.5088 12.9004 18.5088 12.9337 18.5005 12.9753C17.9172 12.467 17.1672 12.167 16.3338 12.167C15.5505 12.167 14.8255 12.442 14.2505 12.9003C13.4838 13.5087 13.0005 14.4503 13.0005 15.5003C13.0005 16.1253 13.1755 16.717 13.4838 17.217C13.5588 17.3503 13.6505 17.4753 13.7505 17.592L12.2255 18.4337C11.2755 18.967 9.7255 18.967 8.7755 18.4337L4.32551 15.967C3.31717 15.4087 2.49219 14.0087 2.49219 12.8587V8.14199C2.49219 6.99199 3.31717 5.59201 4.32551 5.03368L8.7755 2.56699C9.7255 2.03366 11.2755 2.03366 12.2255 2.56699L16.6755 5.03368C17.6838 5.59201 18.5088 6.99199 18.5088 8.14199Z" stroke="#322972" stroke-width="1.3" stroke-linecap="round" stroke-linejoin="round"/>
<path d="M19.6667 15.5003C19.6667 16.1253 19.4917 16.717 19.1833 17.217C19.0083 17.517 18.7833 17.7837 18.525 18.0003C17.9417 18.5253 17.175 18.8337 16.3333 18.8337C15.1167 18.8337 14.0583 18.1837 13.4833 17.217C13.175 16.717 13 16.1253 13 15.5003C13 14.4503 13.4833 13.5087 14.25 12.9003C14.825 12.442 15.55 12.167 16.3333 12.167C18.175 12.167 19.6667 13.6587 19.6667 15.5003Z" stroke="#322972" stroke-width="1.3" stroke-miterlimit="10" stroke-linecap="round" stroke-linejoin="round"/>
<path d="M17.2256 16.3667L15.459 14.6084" stroke="#322972" stroke-width="1.3" stroke-miterlimit="10" stroke-linecap="round" stroke-linejoin="round"/>
<path d="M17.2081 14.6338L15.4414 16.3921" stroke="#322972" stroke-width="1.3" stroke-miterlimit="10" stroke-linecap="round" stroke-linejoin="round"/>
</svg>
