<svg width="25" height="25" viewBox="0 0 25 25" fill="none" xmlns="http://www.w3.org/2000/svg">
<path d="M18.3701 22.37C18.0601 22.37 17.7501 22.29 17.4701 22.12L13.4601 19.74C13.0401 19.73 12.6201 19.7 12.2201 19.64C11.9501 19.6 11.7201 19.42 11.6201 19.16C11.5201 18.9 11.5701 18.62 11.7501 18.41C12.4101 17.64 12.7501 16.72 12.7501 15.74C12.7501 13.32 10.6201 11.35 8.00008 11.35C7.02008 11.35 6.08007 11.62 5.29007 12.14C5.07007 12.28 4.80007 12.3 4.56007 12.19C4.33007 12.08 4.16008 11.86 4.13008 11.6C4.10008 11.32 4.08008 11.04 4.08008 10.75C4.08008 5.79 8.38008 1.76001 13.6601 1.76001C18.9401 1.76001 23.2401 5.79 23.2401 10.75C23.2401 13.47 21.9801 15.97 19.7601 17.68L20.1001 20.4C20.1801 21.08 19.8801 21.72 19.3101 22.09C19.0301 22.27 18.7001 22.37 18.3701 22.37ZM13.6501 18.23C13.7901 18.22 13.9301 18.26 14.0501 18.34L18.2401 20.83C18.3501 20.9 18.4401 20.87 18.5001 20.83C18.5501 20.8 18.6301 20.72 18.6101 20.58L18.2201 17.42C18.1901 17.14 18.3101 16.87 18.5301 16.71C20.5701 15.28 21.7401 13.1 21.7401 10.73C21.7401 6.59998 18.1201 3.23999 13.6601 3.23999C9.37008 3.23999 5.85007 6.36003 5.59007 10.28C6.34007 9.99003 7.15008 9.83002 7.99008 9.83002C11.4401 9.83002 14.2401 12.47 14.2401 15.72C14.2501 16.6 14.0401 17.45 13.6501 18.23Z" fill="#322972"/>
<path d="M5.07977 23.2501C4.81977 23.2501 4.56977 23.1801 4.33977 23.0301C3.88977 22.7401 3.64978 22.2401 3.70978 21.7101L3.90977 20.17C2.55977 19.07 1.75977 17.44 1.75977 15.73C1.75977 13.78 2.77978 11.9601 4.48978 10.8701C5.51978 10.2001 6.73977 9.84009 8.00977 9.84009C11.4598 9.84009 14.2598 12.48 14.2598 15.73C14.2598 17.05 13.7798 18.3501 12.8998 19.3801C11.7698 20.7501 10.0798 21.55 8.21977 21.61L5.77977 23.0601C5.55977 23.1901 5.31977 23.2501 5.07977 23.2501ZM7.99977 11.3401C7.01977 11.3401 6.07976 11.6101 5.28976 12.1301C4.00976 12.9501 3.24977 14.29 3.24977 15.73C3.24977 17.12 3.92978 18.3901 5.12978 19.2101C5.35978 19.3701 5.47977 19.64 5.44977 19.92L5.22977 21.6301L7.61977 20.2101C7.73977 20.1401 7.86977 20.1 7.99977 20.1C9.46977 20.1 10.8598 19.4701 11.7398 18.4001C12.3998 17.6201 12.7498 16.7 12.7498 15.72C12.7498 13.31 10.6198 11.3401 7.99977 11.3401Z" fill="#322972"/>
</svg>
