<svg width="25" height="25" viewBox="0 0 25 25" fill="none" xmlns="http://www.w3.org/2000/svg">
<path d="M12.5 22.5C6.97715 22.5 2.5 18.0228 2.5 12.5C2.5 6.97715 6.97715 2.5 12.5 2.5C18.0228 2.5 22.5 6.97715 22.5 12.5C22.5 18.0228 18.0228 22.5 12.5 22.5ZM12.5 20.5C16.9183 20.5 20.5 16.9183 20.5 12.5C20.5 8.08172 16.9183 4.5 12.5 4.5C8.08172 4.5 4.5 8.08172 4.5 12.5C4.5 16.9183 8.08172 20.5 12.5 20.5ZM12.5 11.0858L15.3284 8.25736L16.7426 9.67157L13.9142 12.5L16.7426 15.3284L15.3284 16.7426L12.5 13.9142L9.67157 16.7426L8.25736 15.3284L11.0858 12.5L8.25736 9.67157L9.67157 8.25736L12.5 11.0858Z" fill="#C62828"/>
</svg>
