<svg width="20" height="21" viewBox="0 0 20 21" fill="none" xmlns="http://www.w3.org/2000/svg">
<path d="M5.83317 5.50033V3.00033C5.83317 2.54009 6.20627 2.16699 6.6665 2.16699H16.6665C17.1267 2.16699 17.4998 2.54009 17.4998 3.00033V14.667C17.4998 15.1272 17.1267 15.5003 16.6665 15.5003H14.1665V17.9996C14.1665 18.4602 13.7916 18.8337 13.3275 18.8337H3.33888C2.87549 18.8337 2.5 18.4632 2.5 17.9996L2.50217 6.33438C2.50225 5.87375 2.8772 5.50033 3.34118 5.50033H5.83317ZM7.49983 5.50033H14.1665V13.8337H15.8332V3.83366H7.49983V5.50033ZM5.83317 9.66699V11.3337H10.8332V9.66699H5.83317ZM5.83317 13.0003V14.667H10.8332V13.0003H5.83317Z" fill="#343434"/>
</svg>
