<svg width="20" height="20" viewBox="0 0 20 20" fill="none" xmlns="http://www.w3.org/2000/svg">
<g clip-path="url(#clip0_2534_110248)">
<path d="M18.6054 15.3512C19.212 16.2129 19.9995 17.2087 19.9995 17.9162C19.9995 18.4687 19.78 18.9986 19.3893 19.3893C18.9986 19.78 18.4687 19.9995 17.9162 19.9995C17.3637 19.9995 16.8338 19.78 16.4431 19.3893C16.0524 18.9986 15.8329 18.4687 15.8329 17.9162C15.8329 17.2704 16.6337 16.2429 17.2429 15.3587C17.3192 15.2491 17.4207 15.1594 17.5389 15.0973C17.6572 15.0351 17.7886 15.0023 17.9222 15.0015C18.0557 15.0008 18.1875 15.0322 18.3064 15.093C18.4253 15.1539 18.5278 15.2424 18.6054 15.3512ZM17.8745 11.5529L10.6479 18.7795C9.86581 19.5597 8.80626 19.9978 7.70161 19.9978C6.59696 19.9978 5.53741 19.5597 4.75536 18.7795L1.22036 15.2437C0.438976 14.4623 0 13.4025 0 12.2974C0 11.1924 0.438976 10.1326 1.22036 9.35119L5.97786 4.59286L3.59786 2.18453C3.44671 2.02655 3.3637 1.81549 3.36673 1.59687C3.36977 1.37825 3.4586 1.16958 3.61408 1.01585C3.76955 0.862123 3.97921 0.775658 4.19786 0.775099C4.4165 0.774539 4.6266 0.85993 4.78286 1.01286L7.15619 3.41619L8.44619 2.12453L7.74369 1.42203C7.5919 1.26486 7.5079 1.05436 7.5098 0.835858C7.5117 0.617361 7.59934 0.40835 7.75385 0.253843C7.90835 0.0993366 8.11736 0.0116958 8.33586 0.00979713C8.55436 0.00789844 8.76486 0.0918938 8.92203 0.243692L19.7554 11.077C19.835 11.1539 19.8984 11.2459 19.9421 11.3475C19.9858 11.4492 20.0088 11.5585 20.0097 11.6692C20.0107 11.7798 19.9896 11.8896 19.9477 11.992C19.9058 12.0944 19.8439 12.1874 19.7657 12.2657C19.6874 12.3439 19.5944 12.4058 19.492 12.4477C19.3896 12.4896 19.2798 12.5107 19.1692 12.5097C19.0585 12.5088 18.9492 12.4858 18.8475 12.4421C18.7459 12.3984 18.6539 12.335 18.577 12.2554L17.8745 11.5529ZM16.6962 10.3745L9.62453 3.30286L8.32703 4.60119L12.2587 8.58286C12.344 8.65865 12.4129 8.75116 12.461 8.85466C12.5091 8.95816 12.5354 9.07043 12.5384 9.18453C12.5413 9.29862 12.5208 9.41211 12.478 9.51794C12.4353 9.62377 12.3713 9.71969 12.29 9.79977C12.2086 9.87984 12.1117 9.94235 12.0052 9.98343C11.8988 10.0245 11.785 10.0433 11.6709 10.0386C11.5569 10.0338 11.445 10.0058 11.3423 9.95605C11.2396 9.90633 11.1481 9.83603 11.0737 9.74953L7.14953 5.77869L2.39953 10.5287C2.16734 10.7608 1.98315 11.0365 1.85749 11.3398C1.73182 11.6431 1.66714 11.9683 1.66714 12.2966C1.66714 12.625 1.73182 12.9501 1.85749 13.2534C1.98315 13.5568 2.16734 13.8324 2.39953 14.0645L5.93453 17.6004C6.40392 18.0683 7.03967 18.331 7.70244 18.331C8.36522 18.331 9.00097 18.0683 9.47036 17.6004L16.6962 10.3745Z" fill="#FF0000"/>
</g>
<defs>
<clipPath id="clip0_2534_110248">
<rect width="20" height="20" fill="white"/>
</clipPath>
</defs>
</svg>
