<svg width="20" height="22" viewBox="0 0 20 22" fill="none" xmlns="http://www.w3.org/2000/svg">
<path d="M18.3333 15.9805H12.5" stroke="#7B7B7B" stroke-width="1.5" stroke-miterlimit="10" stroke-linecap="round" stroke-linejoin="round"/>
<path d="M4.16797 15.9805H1.66797" stroke="#7B7B7B" stroke-width="1.5" stroke-miterlimit="10" stroke-linecap="round" stroke-linejoin="round"/>
<path d="M18.332 6.01953H15.832" stroke="#7B7B7B" stroke-width="1.5" stroke-miterlimit="10" stroke-linecap="round" stroke-linejoin="round"/>
<path d="M7.5013 6.01953H1.66797" stroke="#7B7B7B" stroke-width="1.5" stroke-miterlimit="10" stroke-linecap="round" stroke-linejoin="round"/>
<path d="M5.83464 13.2656H10.8346C11.7513 13.2656 12.5013 13.7183 12.5013 15.0763V16.887C12.5013 18.2451 11.7513 18.6977 10.8346 18.6977H5.83464C4.91797 18.6977 4.16797 18.2451 4.16797 16.887V15.0763C4.16797 13.7183 4.91797 13.2656 5.83464 13.2656Z" stroke="#7B7B7B" stroke-width="1.5" stroke-miterlimit="10" stroke-linecap="round" stroke-linejoin="round"/>
<path d="M9.16667 3.30469H14.1667C15.0833 3.30469 15.8333 3.75736 15.8333 5.11539V6.92609C15.8333 8.28411 15.0833 8.73679 14.1667 8.73679H9.16667C8.25 8.73679 7.5 8.28411 7.5 6.92609V5.11539C7.5 3.75736 8.25 3.30469 9.16667 3.30469Z" stroke="#7B7B7B" stroke-width="1.5" stroke-miterlimit="10" stroke-linecap="round" stroke-linejoin="round"/>
</svg>
