<svg width="20" height="20" viewBox="0 0 20 20" fill="none" xmlns="http://www.w3.org/2000/svg">
<path d="M18.334 5.0013V7.01797C18.334 8.33464 17.5006 9.16797 16.184 9.16797H13.334V3.34297C13.334 2.41797 14.0923 1.66797 15.0173 1.66797C15.9257 1.6763 16.759 2.04297 17.359 2.64297C17.959 3.2513 18.334 4.08464 18.334 5.0013Z" stroke="#322972" stroke-width="1.5" stroke-miterlimit="10" stroke-linecap="round" stroke-linejoin="round"/>
<path d="M1.66602 5.83464V17.5013C1.66602 18.193 2.44933 18.5846 2.99933 18.168L4.42435 17.1013C4.75768 16.8513 5.22435 16.8846 5.52435 17.1846L6.90766 18.5763C7.23266 18.9013 7.76603 18.9013 8.09103 18.5763L9.49103 17.1763C9.78269 16.8846 10.2494 16.8513 10.5744 17.1013L11.9994 18.168C12.5494 18.5763 13.3327 18.1846 13.3327 17.5013V3.33464C13.3327 2.41797 14.0827 1.66797 14.9993 1.66797H5.83268H4.99935C2.49935 1.66797 1.66602 3.15964 1.66602 5.0013V5.83464Z" stroke="#322972" stroke-width="1.5" stroke-miterlimit="10" stroke-linecap="round" stroke-linejoin="round"/>
<path d="M5 7.5H10" stroke="#322972" stroke-width="1.5" stroke-linecap="round" stroke-linejoin="round"/>
<path d="M5.625 10.832H9.375" stroke="#322972" stroke-width="1.5" stroke-linecap="round" stroke-linejoin="round"/>
</svg>
