<svg width="20" height="21" viewBox="0 0 20 21" fill="none" xmlns="http://www.w3.org/2000/svg">
<path d="M5.45437 8.19411L5.45437 4.91257C5.45437 2.3095 6.40891 1.27103 8.80164 1.27103L14.8471 1.27103C17.2271 1.27103 18.1816 2.3095 18.1816 4.91257V11.4895C18.1816 14.0787 17.2271 15.1172 14.8471 15.1172H11.818V11.8356C11.818 9.23257 10.8635 8.19411 8.48346 8.19411L5.45437 8.19411Z" stroke="#322972" stroke-width="1.5" stroke-linecap="round" stroke-linejoin="round"/>
<path d="M1.8196 16.1067L1.8196 9.52976C1.8196 6.92668 2.77415 5.88822 5.16687 5.88822L11.2123 5.88822C13.5923 5.88822 14.5469 6.92668 14.5469 9.52976L14.5469 16.1067C14.5469 18.6959 13.5923 19.7344 11.2123 19.7344H5.16687C2.77415 19.7344 1.8196 18.6959 1.8196 16.1067Z" fill="#EBE9FF" stroke="#322972" stroke-width="1.5" stroke-linecap="round" stroke-linejoin="round"/>
</svg>
