<svg width="21" height="21" viewBox="0 0 21 21" fill="none" xmlns="http://www.w3.org/2000/svg">
<g clip-path="url(#clip0_2220_68385)">
<path d="M17.6324 3.22667L15.7291 1.26083C15.4953 1.0208 15.216 0.829867 14.9075 0.699218C14.599 0.568569 14.2675 0.500839 13.9324 0.5H10.0033C9.04308 0.501212 8.11269 0.833408 7.36888 1.4406C6.62507 2.04779 6.11334 2.89284 5.91992 3.83333H5.83659C4.73193 3.83466 3.67289 4.27407 2.89177 5.05518C2.11066 5.8363 1.67125 6.89534 1.66992 8V16.3333C1.67125 17.438 2.11066 18.497 2.89177 19.2782C3.67289 20.0593 4.73193 20.4987 5.83659 20.5H10.8366C11.9413 20.4987 13.0003 20.0593 13.7814 19.2782C14.5625 18.497 15.0019 17.438 15.0033 16.3333V16.25C15.9437 16.0566 16.7888 15.5449 17.396 14.801C18.0032 14.0572 18.3354 13.1268 18.3366 12.1667V4.96667C18.3378 4.31701 18.0851 3.6926 17.6324 3.22667ZM10.8366 18.8333H5.83659C5.17355 18.8333 4.53766 18.5699 4.06882 18.1011C3.59998 17.6323 3.33659 16.9964 3.33659 16.3333V8C3.33659 7.33696 3.59998 6.70107 4.06882 6.23223C4.53766 5.76339 5.17355 5.5 5.83659 5.5V12.1667C5.83791 13.2713 6.27732 14.3304 7.05844 15.1115C7.83955 15.8926 8.89859 16.332 10.0033 16.3333H13.3366C13.3366 16.9964 13.0732 17.6323 12.6044 18.1011C12.1355 18.5699 11.4996 18.8333 10.8366 18.8333ZM14.1699 14.6667H10.0033C9.34021 14.6667 8.70433 14.4033 8.23549 13.9344C7.76665 13.4656 7.50326 12.8297 7.50326 12.1667V4.66667C7.50326 4.00363 7.76665 3.36774 8.23549 2.8989C8.70433 2.43006 9.34021 2.16667 10.0033 2.16667H13.3366V3.83333C13.3366 4.27536 13.5122 4.69928 13.8247 5.01184C14.1373 5.32441 14.5612 5.5 15.0033 5.5H16.6699V12.1667C16.6699 12.8297 16.4065 13.4656 15.9377 13.9344C15.4688 14.4033 14.833 14.6667 14.1699 14.6667Z" fill="#322972"/>
</g>
<defs>
<clipPath id="clip0_2220_68385">
<rect width="20" height="20" fill="white" transform="translate(0.00390625 0.5)"/>
</clipPath>
</defs>
</svg>
