<svg width="21" height="20" viewBox="0 0 21 20" fill="none" xmlns="http://www.w3.org/2000/svg">
<path d="M17.9993 8.95866H12.9993C12.6127 8.95822 12.242 8.80443 11.9686 8.53104C11.6952 8.25764 11.5415 7.88696 11.541 7.50033V2.50033C11.5415 2.11369 11.6952 1.74301 11.9686 1.46962C12.242 1.19622 12.6127 1.04243 12.9993 1.04199H17.9993C18.386 1.04243 18.7567 1.19622 19.0301 1.46962C19.3035 1.74301 19.4572 2.11369 19.4577 2.50033V7.50033C19.4572 7.88696 19.3035 8.25764 19.0301 8.53104C18.7567 8.80443 18.386 8.95822 17.9993 8.95866ZM12.9993 2.29199C12.9441 2.29199 12.8911 2.31394 12.852 2.35301C12.813 2.39208 12.791 2.44507 12.791 2.50033V7.50033C12.791 7.55558 12.813 7.60857 12.852 7.64764C12.8911 7.68671 12.9441 7.70866 12.9993 7.70866H17.9993C18.0546 7.70866 18.1076 7.68671 18.1467 7.64764C18.1857 7.60857 18.2077 7.55558 18.2077 7.50033V2.50033C18.2077 2.44507 18.1857 2.39208 18.1467 2.35301C18.1076 2.31394 18.0546 2.29199 17.9993 2.29199H12.9993ZM15.4993 19.3712C15.3079 19.3715 15.1182 19.334 14.9413 19.2607C14.7644 19.1875 14.6037 19.08 14.4685 18.9445L11.5552 16.0312C11.2823 15.7575 11.1291 15.3868 11.1291 15.0003C11.1291 14.6139 11.2823 14.2432 11.5552 13.9695L14.4685 11.0562C14.7421 10.7831 15.1128 10.6297 15.4993 10.6297C15.8859 10.6297 16.2566 10.7831 16.5302 11.0562L19.4435 13.9695C19.7166 14.2431 19.8699 14.6138 19.8699 15.0003C19.8699 15.3869 19.7166 15.7576 19.4435 16.0312L16.5302 18.9445C16.395 19.08 16.2343 19.1875 16.0574 19.2607C15.8805 19.334 15.6908 19.3715 15.4993 19.3712ZM15.4993 11.8787C15.472 11.8785 15.4448 11.8838 15.4195 11.8943C15.3942 11.9047 15.3712 11.9201 15.3518 11.9395L12.4385 14.8528C12.4191 14.8722 12.4037 14.8952 12.3932 14.9205C12.3827 14.9458 12.3773 14.9729 12.3773 15.0003C12.3773 15.0277 12.3827 15.0549 12.3932 15.0802C12.4037 15.1055 12.4191 15.1285 12.4385 15.1478L15.3518 18.0612C15.3712 18.0806 15.3942 18.096 15.4195 18.1065C15.4448 18.117 15.4719 18.1224 15.4993 18.1224C15.5268 18.1224 15.5539 18.117 15.5792 18.1065C15.6045 18.096 15.6275 18.0806 15.6468 18.0612L18.5602 15.1478C18.5796 15.1285 18.595 15.1055 18.6055 15.0802C18.616 15.0549 18.6214 15.0277 18.6214 15.0003C18.6214 14.9729 18.616 14.9458 18.6055 14.9205C18.595 14.8952 18.5796 14.8722 18.5602 14.8528L15.6468 11.9395C15.6275 11.9201 15.6045 11.9047 15.5792 11.8943C15.5539 11.8838 15.5267 11.8785 15.4993 11.8787ZM7.99935 8.95866H2.99935C2.61271 8.95822 2.24203 8.80443 1.96864 8.53104C1.69524 8.25764 1.54146 7.88696 1.54102 7.50033V2.50033C1.54146 2.11369 1.69524 1.74301 1.96864 1.46962C2.24203 1.19622 2.61271 1.04243 2.99935 1.04199H7.99935C8.38599 1.04243 8.75666 1.19622 9.03006 1.46962C9.30345 1.74301 9.45724 2.11369 9.45768 2.50033V7.50033C9.45724 7.88696 9.30345 8.25764 9.03006 8.53104C8.75666 8.80443 8.38599 8.95822 7.99935 8.95866ZM2.99935 2.29199C2.9441 2.29199 2.89111 2.31394 2.85204 2.35301C2.81297 2.39208 2.79102 2.44507 2.79102 2.50033V7.50033C2.79102 7.55558 2.81297 7.60857 2.85204 7.64764C2.89111 7.68671 2.9441 7.70866 2.99935 7.70866H7.99935C8.0546 7.70866 8.10759 7.68671 8.14666 7.64764C8.18573 7.60857 8.20768 7.55558 8.20768 7.50033V2.50033C8.20768 2.44507 8.18573 2.39208 8.14666 2.35301C8.10759 2.31394 8.0546 2.29199 7.99935 2.29199H2.99935ZM7.99935 18.9587H2.99935C2.61271 18.9582 2.24203 18.8044 1.96864 18.531C1.69524 18.2576 1.54146 17.887 1.54102 17.5003V12.5003C1.54146 12.1137 1.69524 11.743 1.96864 11.4696C2.24203 11.1962 2.61271 11.0424 2.99935 11.042H7.99935C8.38599 11.0424 8.75666 11.1962 9.03006 11.4696C9.30345 11.743 9.45724 12.1137 9.45768 12.5003V17.5003C9.45724 17.887 9.30345 18.2576 9.03006 18.531C8.75666 18.8044 8.38599 18.9582 7.99935 18.9587ZM2.99935 12.292C2.9441 12.292 2.89111 12.3139 2.85204 12.353C2.81297 12.3921 2.79102 12.4451 2.79102 12.5003V17.5003C2.79102 17.5556 2.81297 17.6086 2.85204 17.6476C2.89111 17.6867 2.9441 17.7087 2.99935 17.7087H7.99935C8.0546 17.7087 8.10759 17.6867 8.14666 17.6476C8.18573 17.6086 8.20768 17.5556 8.20768 17.5003V12.5003C8.20768 12.4451 8.18573 12.3921 8.14666 12.353C8.10759 12.3139 8.0546 12.292 7.99935 12.292H2.99935Z" fill="#322972"/>
</svg>
