<svg width="27" height="38" viewBox="0 0 27 38" fill="none" xmlns="http://www.w3.org/2000/svg">
<path d="M19.2682 13.8493C19.2851 12.2897 19.2004 9.17913 18.4206 6.46688C17.6578 3.82243 16.2169 1.5594 13.5216 1.5594C10.8263 1.5594 9.38542 3.82243 8.6226 6.46688C7.83435 9.17913 7.75807 12.2897 7.77502 13.8493L7.28342 13.8578C7.24952 12.2643 7.33428 9.07742 8.13948 6.29736C8.96163 3.44102 10.5381 1 13.5131 1C16.4881 1 18.0646 3.44102 18.8868 6.29736C19.692 9.08589 19.7767 12.2643 19.7598 13.8578L19.2682 13.8493Z" fill="#352D74"/>
<path d="M19.2682 13.8493C19.2851 12.2897 19.2004 9.17913 18.4206 6.46688C17.6578 3.82243 16.2169 1.5594 13.5216 1.5594C10.8263 1.5594 9.38542 3.82243 8.6226 6.46688C7.83435 9.17913 7.75807 12.2897 7.77502 13.8493L7.28342 13.8578C7.24952 12.2643 7.33428 9.07742 8.13948 6.29736C8.96163 3.44102 10.5381 1 13.5131 1C16.4881 1 18.0646 3.44102 18.8868 6.29736C19.692 9.08589 19.7767 12.2643 19.7598 13.8578L19.2682 13.8493Z" stroke="#352D74" stroke-miterlimit="22.9256"/>
<path fill-rule="evenodd" clip-rule="evenodd" d="M3.5198 10.6367H23.4803C24.2261 10.6367 24.7601 11.247 24.8279 11.9844L26.9892 34.6486C27.1418 36.2759 25.6501 37.6151 24.0227 37.6151H2.97735C1.34152 37.6151 -0.141737 36.2759 0.010827 34.6486L2.17215 11.9844C2.23996 11.247 2.78241 10.6367 3.5198 10.6367Z" fill="#ED701E"/>
<path fill-rule="evenodd" clip-rule="evenodd" d="M13.5043 21.1719C16.2844 21.1719 18.6576 23.4434 18.4118 26.1811C18.0813 26.0878 17.8185 26.0539 17.471 26.0709C17.632 23.9689 15.7504 22.0449 13.5043 22.0449C11.3515 22.0449 9.52073 23.8248 9.5292 25.8336C9.17322 25.8251 8.94437 25.8675 8.57991 25.9776C8.46973 23.3162 10.809 21.1719 13.5043 21.1719Z" fill="#352D74"/>
<path fill-rule="evenodd" clip-rule="evenodd" d="M9.5049 25.7578C10.4542 25.7578 11.2509 26.0714 11.9968 26.5376C12.8528 27.0716 13.5394 27.775 14.1073 28.6057C14.6497 29.4024 15.2854 30.1144 16.1075 30.6399C16.9551 31.1738 17.8366 31.301 18.7605 30.8348C20.0233 30.1991 20.3624 28.5887 19.4639 27.4953C18.9384 26.8597 18.2519 26.5122 17.4213 26.5037C16.1753 26.4952 15.2345 26.9953 14.3954 27.8768C14.3361 27.9361 14.2683 28.0208 14.1751 27.9361C14.0903 27.8513 14.1496 27.775 14.209 27.7072C14.9803 26.7664 15.8533 26.224 17.0738 26.029C18.574 25.7917 20.1335 26.6986 20.6166 28.1056C21.0913 29.5041 20.4556 31.0636 19.1249 31.7756C17.9383 32.4113 16.7602 32.3265 15.582 31.7756C14.4632 31.2416 13.6072 30.411 12.9206 29.3939C12.4206 28.665 11.8612 27.9869 11.1662 27.4445C10.6237 27.0207 10.0219 26.741 9.30996 26.741C8.19963 26.7495 7.15711 27.6225 6.9876 28.7243C6.86046 29.538 7.16559 30.2076 7.77585 30.75C8.61495 31.4874 9.58119 31.5807 10.6152 31.284C11.3102 31.0891 11.8103 30.7924 12.3273 30.2839C12.3951 30.2161 12.463 30.1483 12.5308 30.072C12.5986 30.0042 12.6664 29.9109 12.7766 30.0042C12.8783 30.0974 12.802 30.1822 12.7342 30.2585C12.0307 31.0891 11.2594 31.5807 10.183 31.818C8.47086 32.1994 7.00455 31.2077 6.50448 30.0296C6.04679 28.9701 6.20783 27.97 6.90284 27.0716C7.46224 26.3511 8.21659 25.9273 9.12349 25.7917C9.25911 25.7578 9.40319 25.7578 9.5049 25.7578Z" fill="#352D74"/>
<path fill-rule="evenodd" clip-rule="evenodd" d="M14.6399 21.3834C14.8264 21.1715 14.9959 20.9427 15.1485 20.6969C15.6825 19.8493 15.8096 18.9678 15.3434 18.0439C14.7078 16.7811 13.0974 16.442 12.004 17.3405C11.3683 17.866 11.0208 18.5525 11.0123 19.3831C11.0038 20.1883 11.2412 20.9172 11.6904 21.5783C11.5802 21.6207 11.47 21.6631 11.3683 21.714C10.9445 21.1461 10.6648 20.485 10.5377 19.7306C10.3003 18.2304 11.2073 16.6709 12.6142 16.1877C14.0127 15.7131 15.5723 16.3488 16.2842 17.6795C16.9199 18.8661 16.8352 20.0442 16.2842 21.2224C16.1825 21.4427 16.0639 21.6546 15.9367 21.858C15.5299 21.6377 15.0976 21.4766 14.6399 21.3834Z" fill="#352D74"/>
</svg>
