<svg width="250" height="63" viewBox="0 0 250 63" fill="none" xmlns="http://www.w3.org/2000/svg">
<g clip-path="url(#clip0_5427_89511)">
<path fill-rule="evenodd" clip-rule="evenodd" d="M149.471 32.2903C147.139 30.2394 144.766 29.6228 141.616 29.6228C137.93 29.6228 133.105 31.2581 133.105 35.9228C133.105 40.5071 137.649 41.9011 141.456 42.1826C144.324 42.3435 145.463 42.9198 145.463 44.3139C145.463 45.7884 143.708 46.7669 141.818 46.7267C139.566 46.6864 136.295 45.4935 134.861 43.8984L132.408 47.4639C135.357 50.5335 138.547 51.0696 141.737 51.0696C147.514 51.0696 150.423 48.0001 150.423 44.4345C150.423 39.0728 145.598 38.2149 141.791 37.9603C139.217 37.7994 138.024 37.0622 138.024 35.7486C138.024 34.4752 139.338 33.7379 141.71 33.7379C143.641 33.7379 145.276 34.1937 146.71 35.5341L149.471 32.2903ZM120.116 34.0864C122.985 34.0864 125.357 36.2981 125.357 39.7832C125.357 43.2684 122.985 45.3862 120.116 45.3862C117.207 45.3862 114.835 43.2952 114.835 39.7832C114.835 36.2579 117.207 34.0864 120.116 34.0864ZM124.741 30.6952C123.346 29.7569 121.711 29.5424 120.116 29.5424C114.459 29.5424 109.875 33.4698 109.875 39.7832C109.875 46.0832 113.803 49.9303 120.116 49.9303C122.609 49.9303 125.236 51.2037 125.236 53.9784C125.236 56.7664 122.985 58.3213 120.116 58.3213C117.248 58.3213 114.835 56.6056 114.835 53.9784H109.875C109.875 59.4205 114.258 62.986 120.116 62.986C125.974 62.986 130.223 59.5411 130.223 53.9784C130.223 51.4047 129.405 48.9786 126.041 47.303C129.352 45.7884 130.303 42.263 130.303 39.7698C130.303 37.5581 129.727 35.5475 128.172 33.7915L130.424 30.923L126.738 28.1349L124.741 30.6952ZM95.7605 34.1803C103.615 34.1803 103.615 46.4184 95.7605 46.4184C92.4497 46.4184 89.7822 44.1262 89.7822 40.2792C89.7822 36.4322 92.4363 34.1803 95.7605 34.1803ZM101.739 32.9873C100.586 30.9766 98.0124 29.7166 95.3048 29.7166C89.4069 29.6764 84.7824 33.3224 84.7824 40.2792C84.7824 47.3566 89.2058 51.0428 95.1841 51.0026C97.436 50.9624 100.586 49.8096 101.739 47.4371L101.98 50.386H106.685V30.1992H101.9L101.739 32.9873ZM71.7267 21.6875C67.1826 21.6875 62.6386 21.6875 58.1348 21.6875V50.386C62.6788 50.386 67.1826 50.386 71.7267 50.386C77.6648 50.386 82.4501 48.3352 82.4501 41.9547C82.4501 40.1586 81.2169 36.593 77.8658 35.5743C80.5333 34.3813 81.5922 32.2501 81.5922 30.0249C81.5922 24.2209 77.3699 21.6875 71.7267 21.6875ZM63.4563 26.5935H71.7267C75.1716 26.5935 76.2305 28.8186 76.2305 30.1322C76.2305 31.7809 75.1314 33.2286 71.7267 33.2286H63.4563V26.5935ZM63.4563 37.9871H71.7267C73.9384 37.9871 77.0884 39.3409 77.0884 41.9145C77.0884 44.6222 73.9384 45.3594 71.7267 45.3594H63.4563V37.9871Z" fill="#352D74"/>
<path fill-rule="evenodd" clip-rule="evenodd" d="M230.218 30.457V40.9258C230.218 47.1185 233.689 50.7109 238.461 50.7109C241.249 50.7109 243.153 49.7458 245.217 47.7217L245.539 50.3892H249.949V30.457H245.056V40.6175C245.056 43.6736 242.992 46.2204 239.963 46.2204C236.813 46.2204 235.15 43.9149 235.15 40.8855V30.457H230.218ZM212.135 30.457V50.3892H217.068V39.8802C217.068 36.1941 219.454 34.8268 222.041 34.8268C223.663 34.8268 224.588 35.2692 225.593 36.127L227.818 31.8377C226.733 30.7519 224.749 29.9343 222.684 29.9343C220.66 29.9343 218.596 30.2962 217.068 32.7626L216.706 30.457H212.135ZM188.034 30.457V40.9258C188.034 47.1185 191.506 50.7109 196.278 50.7109C199.066 50.7109 200.97 49.7458 203.034 47.7217L203.356 50.3892H207.766V30.457H202.873V40.6175C202.873 43.6736 200.809 46.2204 197.779 46.2204C194.629 46.2204 192.967 43.9149 192.967 40.8855V30.457H188.034ZM183.142 25.5913C180.233 22.7228 176.426 21.2617 172.633 21.2617C162.647 21.2617 157.674 28.6207 157.674 36.5828C157.674 44.0221 162.003 51.0192 172.633 51.0192C177.606 51.0192 181.131 49.1158 183.919 45.9255V33.9958H171.788V38.7677H179.027V43.7809C176.802 45.5636 174.858 46.0462 172.633 46.0462C165.596 46.0462 162.888 41.2341 162.888 36.5828C162.888 30.7653 166.574 26.1543 172.633 26.1543C175.099 26.1543 177.928 27.1596 179.831 28.9826L183.142 25.5913Z" fill="#ED701E"/>
<path d="M30.4671 23.6841C30.4939 21.2178 30.3599 16.2984 29.1267 12.009C27.9203 7.8269 25.6416 4.24796 21.3791 4.24796C17.1165 4.24796 14.8378 7.8269 13.6314 12.009C12.3848 16.2984 12.2642 21.2178 12.291 23.6841L11.5135 23.6975C11.4599 21.1775 11.5939 16.1375 12.8674 11.7409C14.1676 7.22371 16.6608 3.36328 21.3656 3.36328C26.0705 3.36328 28.5637 7.22371 29.8639 11.7409C31.1374 16.1509 31.2714 21.1775 31.2446 23.6975L30.4671 23.6841Z" fill="#352D74"/>
<path d="M30.4671 23.6841C30.4939 21.2178 30.3599 16.2984 29.1267 12.009C27.9203 7.8269 25.6416 4.24796 21.3791 4.24796C17.1165 4.24796 14.8378 7.8269 13.6314 12.009C12.3848 16.2984 12.2642 21.2178 12.291 23.6841L11.5135 23.6975C11.4599 21.1775 11.5939 16.1375 12.8674 11.7409C14.1676 7.22371 16.6608 3.36328 21.3656 3.36328C26.0705 3.36328 28.5637 7.22371 29.8639 11.7409C31.1374 16.1509 31.2714 21.1775 31.2446 23.6975L30.4671 23.6841Z" stroke="#352D74" stroke-width="2" stroke-miterlimit="22.9256"/>
<path fill-rule="evenodd" clip-rule="evenodd" d="M5.56258 18.6055H37.1296C38.3092 18.6055 39.1536 19.5706 39.2609 20.7367L42.679 56.5797C42.9202 59.1533 40.5611 61.2712 37.9875 61.2712H4.70471C2.11768 61.2712 -0.22806 59.1533 0.0132164 56.5797L3.4313 20.7367C3.53854 19.5706 4.39641 18.6055 5.56258 18.6055Z" fill="#ED701E"/>
<path fill-rule="evenodd" clip-rule="evenodd" d="M21.3524 35.2656C25.749 35.2656 29.5022 38.858 29.1134 43.1875C28.5907 43.0401 28.1752 42.9865 27.6256 43.0133C27.8803 39.689 24.9045 36.6463 21.3524 36.6463C17.9477 36.6463 15.0524 39.4612 15.0658 42.638C14.5028 42.6246 14.1409 42.6916 13.5645 42.8658C13.3903 38.6569 17.0898 35.2656 21.3524 35.2656Z" fill="#352D74"/>
<path fill-rule="evenodd" clip-rule="evenodd" d="M15.0268 42.5156C16.5281 42.5156 17.7881 43.0116 18.9676 43.7488C20.3215 44.5933 21.4072 45.7058 22.3053 47.0195C23.1632 48.2795 24.1685 49.4054 25.4687 50.2365C26.8091 51.0809 28.2032 51.282 29.6642 50.5448C31.6615 49.5395 32.1976 46.9926 30.7768 45.2635C29.9457 44.2582 28.86 43.7086 27.5464 43.6952C25.5759 43.6818 24.0881 44.4726 22.761 45.8667C22.6672 45.9605 22.56 46.0946 22.4125 45.9605C22.2785 45.8265 22.3723 45.7058 22.4661 45.5986C23.6859 44.1107 25.0666 43.2529 26.9968 42.9446C29.3693 42.5692 31.8357 44.0035 32.5998 46.2286C33.3504 48.4403 32.3451 50.9067 30.2406 52.0326C28.364 53.038 26.5008 52.9039 24.6376 52.0326C22.8683 51.1882 21.5144 49.8746 20.4287 48.2661C19.6378 47.1133 18.7532 46.0409 17.654 45.1831C16.7961 44.5129 15.8444 44.0705 14.7185 44.0705C12.9625 44.0839 11.3138 45.4646 11.0457 47.2071C10.8447 48.4939 11.3272 49.5529 12.2923 50.4107C13.6193 51.5769 15.1474 51.7244 16.7827 51.2552C17.8819 50.9469 18.6727 50.4778 19.4904 49.6735C19.5976 49.5663 19.7049 49.459 19.8121 49.3384C19.9193 49.2312 20.0266 49.0837 20.2008 49.2312C20.3617 49.3786 20.241 49.5126 20.1338 49.6333C19.0213 50.9469 17.8015 51.7243 16.0991 52.0997C13.3915 52.7029 11.0725 51.1346 10.2817 49.2714C9.55785 47.5958 9.81253 46.0141 10.9117 44.5933C11.7964 43.4539 12.9893 42.7837 14.4236 42.5692C14.6381 42.5156 14.8659 42.5156 15.0268 42.5156Z" fill="#352D74"/>
<path fill-rule="evenodd" clip-rule="evenodd" d="M23.1488 35.601C23.4437 35.2659 23.7118 34.904 23.953 34.5153C24.7975 33.1749 24.9986 31.7808 24.2613 30.3197C23.256 28.3225 20.7092 27.7863 18.9801 29.2072C17.9748 30.0383 17.4252 31.124 17.4118 32.4376C17.3984 33.711 17.7737 34.8638 18.4841 35.9093C18.3099 35.9763 18.1356 36.0434 17.9748 36.1238C17.3045 35.2257 16.8622 34.1802 16.6611 32.9872C16.2858 30.6146 17.7201 28.1483 19.9452 27.3842C22.1569 26.6336 24.6233 27.6389 25.7492 29.7434C26.7545 31.62 26.6205 33.4832 25.7492 35.3463C25.5884 35.6949 25.4007 36.03 25.1996 36.3517C24.5562 36.0032 23.8726 35.7485 23.1488 35.601Z" fill="#352D74"/>
</g>
<defs>
<clipPath id="clip0_5427_89511">
<rect width="249.949" height="63" fill="white"/>
</clipPath>
</defs>
</svg>
