<svg width="123" height="27" viewBox="0 0 123 27" fill="none" xmlns="http://www.w3.org/2000/svg">
<path fill-rule="evenodd" clip-rule="evenodd" d="M13.2204 9.58267C14.9031 8.8286 15.5759 7.47194 15.5759 6.05997C15.5759 2.38151 12.9102 0.769531 9.33878 0.769531H0.746094V18.9933H9.33878C13.0916 18.9933 16.1173 17.6928 16.1173 13.6382C16.119 12.4943 15.3429 10.2346 13.2204 9.58267ZM4.11081 3.88881H9.33878C11.5122 3.88881 12.1858 5.30164 12.1858 6.13742C12.1858 7.18597 11.4867 8.10091 9.33878 8.10091H4.11081V3.88881ZM9.33878 15.7957H4.11081V11.1147H9.33878C10.736 11.1147 12.7281 11.9726 12.7281 13.6101C12.7289 15.3276 10.736 15.7957 9.33878 15.7957ZM28.4128 6.17827L28.312 7.9443C27.5867 6.66765 25.9564 5.86507 24.2449 5.86507C20.5166 5.83868 17.5934 8.15282 17.5934 12.5717C17.5934 17.0689 20.3895 19.4086 24.1678 19.3805C25.5904 19.3542 27.5833 18.6265 28.3086 17.1183L28.4637 18.9907H31.4395V6.17657L28.4128 6.17827ZM24.5304 16.4766C22.4341 16.4766 20.7522 15.0203 20.7522 12.5768C20.7522 10.1333 22.4341 8.70264 24.5304 8.70264C29.4982 8.70264 29.4982 16.4715 24.5304 16.4715V16.4766ZM46.3735 12.2602C46.3735 10.8559 46.0117 9.58267 45.028 8.46433L46.4515 6.64468L44.1222 4.87694L42.8512 6.48892C41.9717 5.89315 40.9362 5.76123 39.9271 5.76123C36.3556 5.76123 33.4569 8.25666 33.4569 12.2602C33.4569 16.2638 35.9413 18.7073 39.9271 18.7073C41.5056 18.7073 43.1622 19.5125 43.1622 21.2802C43.1622 23.0479 41.7387 24.0361 39.9271 24.0361C38.1155 24.0361 36.5886 22.9441 36.5886 21.2802H33.4535C33.4535 24.7382 36.2226 26.9996 39.9237 26.9996C43.6248 26.9996 46.3159 24.8157 46.3159 21.2802C46.3159 19.6427 45.7982 18.109 43.6765 17.0434C45.7787 16.0817 46.3735 13.8458 46.3735 12.2602ZM39.9339 15.8212C38.096 15.8212 36.5954 14.4952 36.5954 12.2602C36.5954 10.0252 38.096 8.64646 39.9339 8.64646C41.7454 8.64646 43.2469 10.0499 43.2469 12.2602C43.2469 14.4705 41.7412 15.8212 39.9296 15.8212H39.9339ZM53.6249 11.1164C51.9946 11.0125 51.2439 10.5444 51.2439 9.71204C51.2439 8.90605 52.0717 8.43539 53.5732 8.43539C54.7891 8.43539 55.8245 8.72136 56.7303 9.57927L58.4902 7.49918C57.015 6.19955 55.5144 5.80975 53.5215 5.80975C51.1922 5.80975 48.1376 6.84894 48.1376 9.80992C48.1376 12.7207 51.0109 13.605 53.4173 13.7871C55.2297 13.8909 55.9542 14.2552 55.9542 15.1387C55.9542 16.0749 54.8408 16.6987 53.6503 16.6706C52.2268 16.6451 50.1568 15.891 49.251 14.8774L47.6979 17.1387C49.562 19.0886 51.5803 19.4265 53.5986 19.4265C57.248 19.4265 59.0859 17.4766 59.0859 15.2153C59.0816 11.8177 56.027 11.2721 53.6206 11.1164H53.6249Z" fill="#322972"/>
<path fill-rule="evenodd" clip-rule="evenodd" d="M72.5875 8.59156V11.6215H77.163V14.8054C75.7573 15.9357 74.5304 16.2438 73.1238 16.2438C68.6762 16.2438 66.9638 13.1884 66.9638 10.235C66.9638 6.53786 69.2897 3.61007 73.1238 3.61007C74.6837 3.61007 76.4733 4.25265 77.6748 5.4076L79.7702 3.25516C78.0014 1.49587 75.613 0.508605 73.1238 0.507812C66.8104 0.507813 63.666 5.1812 63.666 10.2393C63.666 14.9637 66.4012 19.4065 73.1238 19.4065C76.2682 19.4065 78.4924 18.1996 80.2566 16.1723V8.59752L72.5875 8.59156ZM92.2453 6.33189V12.7875C92.2453 14.7263 90.9413 16.3434 89.0255 16.3434C87.0318 16.3434 85.9836 14.8803 85.9836 12.9543V6.33189H82.8646V12.9824C82.8646 16.9111 85.0626 19.1954 88.079 19.1954C89.8432 19.1954 91.0447 18.5792 92.3487 17.2958L92.5529 18.9903H95.3355V6.33189H92.2453ZM104.771 5.99826C103.494 5.99826 102.189 6.22976 101.218 7.79578L100.988 6.33189H98.0995V18.9912H101.218V12.3151C101.218 9.978 102.727 9.10562 104.362 9.10562C105.385 9.10562 105.972 9.38819 106.612 9.92694L108.018 7.20342C107.328 6.51232 106.075 5.99826 104.771 5.99826ZM118.908 6.33189V12.7875C118.908 14.7263 117.604 16.3434 115.688 16.3434C113.694 16.3434 112.646 14.8803 112.646 12.9543V6.33189H109.528V12.9824C109.528 16.9111 111.726 19.1954 114.743 19.1954C116.507 19.1954 117.708 18.5792 119.011 17.2958L119.216 18.9903H122.002V6.33189H118.908Z" fill="#ED701E"/>
</svg>
