<svg width="21" height="21" viewBox="0 0 21 21" fill="none" xmlns="http://www.w3.org/2000/svg">
<g clip-path="url(#clip0_2975_141842)">
<path d="M16.3333 1.33301H4.66667C3.562 1.33433 2.50296 1.77374 1.72185 2.55486C0.940735 3.33597 0.501323 4.39501 0.5 5.49967L0.5 15.4997C0.501323 16.6043 0.940735 17.6634 1.72185 18.4445C2.50296 19.2256 3.562 19.665 4.66667 19.6663H16.3333C17.438 19.665 18.497 19.2256 19.2782 18.4445C20.0593 17.6634 20.4987 16.6043 20.5 15.4997V5.49967C20.4987 4.39501 20.0593 3.33597 19.2782 2.55486C18.497 1.77374 17.438 1.33433 16.3333 1.33301ZM4.66667 2.99967H16.3333C16.8323 3.00066 17.3196 3.15094 17.7325 3.43118C18.1453 3.71142 18.4649 4.1088 18.65 4.57217L12.2683 10.9547C11.7987 11.4224 11.1628 11.6851 10.5 11.6851C9.83715 11.6851 9.20131 11.4224 8.73167 10.9547L2.35 4.57217C2.53512 4.1088 2.85468 3.71142 3.26754 3.43118C3.6804 3.15094 4.16768 3.00066 4.66667 2.99967ZM16.3333 17.9997H4.66667C4.00363 17.9997 3.36774 17.7363 2.8989 17.2674C2.43006 16.7986 2.16667 16.1627 2.16667 15.4997V6.74967L7.55333 12.133C8.33552 12.9132 9.39521 13.3514 10.5 13.3514C11.6048 13.3514 12.6645 12.9132 13.4467 12.133L18.8333 6.74967V15.4997C18.8333 16.1627 18.5699 16.7986 18.1011 17.2674C17.6323 17.7363 16.9964 17.9997 16.3333 17.9997Z" fill="#322972"/>
</g>
<defs>
<clipPath id="clip0_2975_141842">
<rect width="20" height="20" fill="white" transform="translate(0.5 0.5)"/>
</clipPath>
</defs>
</svg>
