<svg width="20" height="21" viewBox="0 0 20 21" fill="none" xmlns="http://www.w3.org/2000/svg">
<path d="M18.3327 9.74935V6.24935C18.3327 3.33268 17.166 2.16602 14.2493 2.16602H10.7493C7.83268 2.16602 6.66602 3.33268 6.66602 6.24935V7.16602H9.24935C12.166 7.16602 13.3327 8.33268 13.3327 11.2493V13.8327H14.2493C17.166 13.8327 18.3327 12.666 18.3327 9.74935Z" stroke="#322972" stroke-width="1.5" stroke-linecap="round" stroke-linejoin="round"/>
<path d="M13.3327 14.7493V11.2493C13.3327 8.33268 12.166 7.16602 9.24935 7.16602H5.74935C2.83268 7.16602 1.66602 8.33268 1.66602 11.2493V14.7493C1.66602 17.666 2.83268 18.8327 5.74935 18.8327H9.24935C12.166 18.8327 13.3327 17.666 13.3327 14.7493Z" stroke="#322972" stroke-width="1.5" stroke-linecap="round" stroke-linejoin="round"/>
<path d="M5.06641 13L6.69141 14.625L9.93307 11.375" stroke="#322972" stroke-width="1.5" stroke-linecap="round" stroke-linejoin="round"/>
</svg>
