<svg width="25" height="19" viewBox="0 0 25 19" fill="none" xmlns="http://www.w3.org/2000/svg">
<path d="M4.58136 18.9301C4.48701 18.9302 4.39361 18.9113 4.30675 18.8745C4.21989 18.8377 4.14136 18.7837 4.07586 18.7158C1.7548 16.3158 0.476562 13.1315 0.476562 9.7493C0.476562 6.36783 1.75438 3.18399 4.07455 0.78422C4.34441 0.50508 4.78948 0.497486 5.06881 0.767486C5.34795 1.03739 5.35545 1.48252 5.08555 1.7617C3.02023 3.89785 1.88281 6.73453 1.88281 9.7493C1.88281 12.7647 3.02061 15.6019 5.08672 17.7382C5.35667 18.0173 5.34927 18.4624 5.07013 18.7324C4.93914 18.8594 4.7638 18.9303 4.58136 18.9301Z" fill="#322972"/>
<path d="M6.92395 16.5076C6.82961 16.5077 6.73621 16.4888 6.64934 16.452C6.56248 16.4152 6.48395 16.3612 6.41845 16.2933C4.72411 14.5414 3.79102 12.2173 3.79102 9.749C3.79102 7.2815 4.72364 4.95791 6.41709 3.20614C6.68695 2.92691 7.13213 2.91941 7.41131 3.18931C7.6905 3.45922 7.698 3.90435 7.42809 4.18353C5.9895 5.67167 5.19722 7.64816 5.19722 9.749C5.19722 11.8505 5.98988 13.8274 7.42922 15.3157C7.69922 15.5948 7.69177 16.04 7.41263 16.3099C7.28166 16.4369 7.10636 16.5078 6.92395 16.5076Z" fill="#322972"/>
<path d="M9.2665 14.0855C9.17215 14.0857 9.07875 14.0668 8.99189 14.0299C8.90503 13.9931 8.8265 13.9391 8.761 13.8712C7.69342 12.7674 7.10547 11.3034 7.10547 9.74912C7.10547 8.19559 7.69291 6.7322 8.75959 5.62853C9.02936 5.34934 9.47453 5.34161 9.75381 5.61161C10.033 5.88146 10.0406 6.32659 9.77078 6.60582C8.95886 7.44592 8.51172 8.5622 8.51172 9.74917C8.51172 10.9367 8.95923 12.0534 9.77186 12.8937C10.0419 13.1728 10.0344 13.6179 9.75522 13.8879C9.62423 14.0149 9.44891 14.0857 9.2665 14.0855ZM20.3704 18.9312C20.1879 18.9315 20.0125 18.8605 19.8816 18.7335C19.6025 18.4635 19.5951 18.0183 19.8651 17.7392C21.932 15.6028 23.0703 12.7652 23.0703 9.74917C23.0703 6.73375 21.9325 3.89659 19.8663 1.76031C19.5964 1.48117 19.6038 1.03604 19.883 0.76609C20.1622 0.496043 20.6073 0.50359 20.8772 0.782684C23.1982 3.18259 24.4765 6.36695 24.4765 9.74917C24.4765 13.1321 23.1977 16.3169 20.8758 18.717C20.8103 18.7849 20.7318 18.8388 20.6449 18.8756C20.5581 18.9125 20.4647 18.9314 20.3704 18.9312Z" fill="#322972"/>
<path d="M18.0273 16.5092C17.8448 16.5095 17.6694 16.4385 17.5384 16.3114C17.2593 16.0414 17.252 15.5963 17.522 15.3172C18.9621 13.8288 19.7552 11.8515 19.7552 9.74936C19.7552 7.64791 18.9625 5.67095 17.5232 4.18267C17.2532 3.90353 17.2607 3.45841 17.5398 3.18845C17.819 2.91841 18.2641 2.92595 18.534 3.20505C20.2283 4.957 21.1615 7.28111 21.1615 9.74936C21.1615 12.2184 20.2278 14.543 18.5327 16.2951C18.4672 16.3629 18.3886 16.4169 18.3018 16.4537C18.2149 16.4905 18.1216 16.5094 18.0273 16.5092Z" fill="#322972"/>
<path d="M15.6845 14.0868C15.502 14.087 15.3266 14.016 15.1956 13.8889C14.9165 13.6188 14.9093 13.1737 15.1793 12.8947C15.9927 12.0543 16.4405 10.9372 16.4405 9.74906C16.4405 8.56153 15.993 7.44482 15.1804 6.60454C14.9104 6.3254 14.9179 5.88028 15.197 5.61032C15.4761 5.34028 15.9213 5.34782 16.1912 5.62696C17.2588 6.73082 17.8467 8.19478 17.8467 9.74906C17.8467 11.3041 17.2583 12.7686 16.1897 13.8726C16.1243 13.9405 16.0458 13.9944 15.959 14.0312C15.8721 14.068 15.7788 14.0869 15.6845 14.0868ZM12.4758 11.8591C11.3228 11.8591 10.3848 10.9128 10.3848 9.74971C10.3848 8.5866 11.3228 7.64034 12.4758 7.64034C13.6288 7.64034 14.5669 8.5866 14.5669 9.74971C14.5669 10.9128 13.6288 11.8591 12.4758 11.8591Z" fill="#322972"/>
</svg>
