<svg width="21" height="21" viewBox="0 0 21 21" fill="none" xmlns="http://www.w3.org/2000/svg">
<g clip-path="url(#clip0_2975_141843)">
<path d="M8.50918 9.12951C8.51012 9.4165 8.74301 9.64869 9.03 9.64869C9.03 9.64869 9.92332 9.64869 10.2683 9.63869C11.545 9.61701 12.4616 8.50701 12.4616 7.00037C12.4616 5.41705 11.5616 4.35205 10.2233 4.35205H9.02082C8.73289 4.35299 8.5 4.58662 8.5 4.87455L8.50918 9.12951ZM10.2267 5.39365C11.1092 5.39365 11.4234 6.22697 11.4234 7.00033C11.4234 7.77369 11.0617 8.58365 10.2525 8.59701C10.0859 8.59701 9.80422 8.60283 9.54922 8.60451L9.54504 5.39369L10.2267 5.39365Z" fill="#322972"/>
<path d="M17.041 5.27197H15.0415V6.55371H16.7129C16.8678 6.55371 16.9829 6.58903 17.0581 6.65967C17.1356 6.72803 17.1743 6.82031 17.1743 6.93652C17.1743 7.05273 17.1356 7.14502 17.0581 7.21338C16.9806 7.28174 16.8656 7.31592 16.7129 7.31592H15.0415V8.9668C15.0415 9.17643 14.9937 9.33252 14.8979 9.43506C14.8045 9.53532 14.6838 9.58545 14.5356 9.58545C14.3853 9.58545 14.2622 9.53418 14.1665 9.43164C14.0731 9.3291 14.0264 9.17415 14.0264 8.9668V5.11133C14.0264 4.96549 14.048 4.84701 14.0913 4.75586C14.1346 4.66243 14.2018 4.59521 14.293 4.5542C14.3864 4.5109 14.5049 4.48926 14.6484 4.48926H17.041C17.2028 4.48926 17.3224 4.52572 17.3999 4.59863C17.4797 4.66927 17.5195 4.7627 17.5195 4.87891C17.5195 4.9974 17.4797 5.0931 17.3999 5.16602C17.3224 5.23665 17.2028 5.27197 17.041 5.27197Z" fill="#322972"/>
<path d="M15.0415 5.27197V5.17197H14.9415V5.27197H15.0415ZM15.0415 6.55371H14.9415V6.65371H15.0415V6.55371ZM17.0581 6.65967L16.9896 6.73259L16.9919 6.73465L17.0581 6.65967ZM17.0581 7.21338L16.9919 7.1384L17.0581 7.21338ZM15.0415 7.31592V7.21592H14.9415V7.31592H15.0415ZM14.8979 9.43506L14.8248 9.36683L14.8248 9.36689L14.8979 9.43506ZM14.1665 9.43164L14.0926 9.49899L14.0934 9.49987L14.1665 9.43164ZM14.0913 4.75586L14.1816 4.79877L14.182 4.79791L14.0913 4.75586ZM14.293 4.5542L14.334 4.6454L14.335 4.64493L14.293 4.5542ZM17.3999 4.59863L17.3313 4.67149L17.3336 4.67349L17.3999 4.59863ZM17.3999 5.16602L17.4673 5.23991L17.4674 5.23982L17.3999 5.16602ZM17.041 5.17197H15.0415V5.37197H17.041V5.17197ZM14.9415 5.27197V6.55371H15.1415V5.27197H14.9415ZM15.0415 6.65371H16.7129V6.45371H15.0415V6.65371ZM16.7129 6.65371C16.8549 6.65371 16.9404 6.68633 16.9896 6.73255L17.1266 6.58678C17.0254 6.49173 16.8808 6.45371 16.7129 6.45371V6.65371ZM16.9919 6.73465C17.0451 6.78154 17.0743 6.84502 17.0743 6.93652H17.2743C17.2743 6.79561 17.2261 6.67451 17.1243 6.58468L16.9919 6.73465ZM17.0743 6.93652C17.0743 7.02803 17.0451 7.09151 16.9919 7.1384L17.1243 7.28836C17.2261 7.19853 17.2743 7.07744 17.2743 6.93652H17.0743ZM16.9919 7.1384C16.9398 7.18444 16.8526 7.21592 16.7129 7.21592V7.41592C16.8786 7.41592 17.0215 7.37904 17.1243 7.28836L16.9919 7.1384ZM16.7129 7.21592H15.0415V7.41592H16.7129V7.21592ZM14.9415 7.31592V8.9668H15.1415V7.31592H14.9415ZM14.9415 8.9668C14.9415 9.16337 14.8964 9.29016 14.8248 9.36683L14.9711 9.50329C15.0909 9.37488 15.1415 9.18949 15.1415 8.9668H14.9415ZM14.8248 9.36689C14.7519 9.44509 14.6585 9.48545 14.5356 9.48545V9.68545C14.709 9.68545 14.8571 9.62555 14.9711 9.50323L14.8248 9.36689ZM14.5356 9.48545C14.4107 9.48545 14.3149 9.4441 14.2396 9.36341L14.0934 9.49987C14.2095 9.62426 14.3598 9.68545 14.5356 9.68545V9.48545ZM14.2404 9.36429C14.1704 9.28746 14.1264 9.16127 14.1264 8.9668H13.9264C13.9264 9.18703 13.9757 9.37074 14.0926 9.49899L14.2404 9.36429ZM14.1264 8.9668V5.11133H13.9264V8.9668H14.1264ZM14.1264 5.11133C14.1264 4.97422 14.1469 4.8719 14.1816 4.79877L14.001 4.71295C13.9491 4.82211 13.9264 4.95677 13.9264 5.11133H14.1264ZM14.182 4.79791C14.2156 4.72559 14.2655 4.67621 14.334 4.64539L14.2519 4.46301C14.1381 4.51422 14.0537 4.59928 14.0006 4.71381L14.182 4.79791ZM14.335 4.64493C14.4111 4.60965 14.514 4.58926 14.6484 4.58926V4.38926C14.4957 4.38926 14.3616 4.41216 14.2509 4.46347L14.335 4.64493ZM14.6484 4.58926H17.041V4.38926H14.6484V4.58926ZM17.041 4.58926C17.1902 4.58926 17.2801 4.62319 17.3314 4.67145L17.4684 4.52581C17.3648 4.42824 17.2154 4.38926 17.041 4.38926V4.58926ZM17.3336 4.67349C17.3898 4.7233 17.4195 4.7884 17.4195 4.87891H17.6195C17.6195 4.73699 17.5695 4.61525 17.4662 4.52377L17.3336 4.67349ZM17.4195 4.87891C17.4195 4.97234 17.3893 5.04019 17.3324 5.09221L17.4674 5.23982C17.57 5.14601 17.6195 5.02245 17.6195 4.87891H17.4195ZM17.3325 5.09212C17.2813 5.13887 17.1909 5.17197 17.041 5.17197V5.37197C17.2147 5.37197 17.3636 5.33444 17.4673 5.23991L17.3325 5.09212Z" fill="#322972"/>
<path d="M3.93359 4.8074V9.1924C3.93359 9.48006 4.1668 9.71322 4.45441 9.71322C4.74203 9.71322 4.97524 9.48002 4.97524 9.1924V7.80658H5.67524C6.64633 7.80658 7.43356 7.01935 7.43356 6.04826C7.43356 5.07717 6.64633 4.28994 5.67524 4.28994L5.67024 4.28662H4.44942C4.41406 4.28725 4.22766 4.29408 4.08027 4.44697C3.9393 4.59322 3.93387 4.76971 3.93359 4.8074ZM5.67024 6.76158H4.97692L4.97192 5.32826H5.67024C6.06606 5.32807 6.38707 5.64877 6.38727 6.04459C6.38747 6.44041 6.06676 6.76143 5.67094 6.76162C5.67075 6.76158 5.67047 6.76158 5.67024 6.76158Z" fill="#322972"/>
<path d="M16.3333 0.5H4.66668C2.36664 0.502773 0.502773 2.36664 0.5 4.66668V16.3334C0.502773 18.6334 2.36664 20.4973 4.66668 20.5H14.1192C15.2249 20.5032 16.286 20.0639 17.0659 19.28L19.2792 17.065C20.0631 16.2855 20.5027 15.2247 20.5 14.1192V4.66668C20.4973 2.36664 18.6334 0.502773 16.3333 0.5ZM2.16668 16.3333V4.66668C2.16668 3.28598 3.28598 2.16668 4.66668 2.16668H16.3334C17.7141 2.16668 18.8334 3.28598 18.8334 4.66668V13H15.5C14.1193 13 13 14.1193 13 15.5V18.8333H4.66668C3.28594 18.8333 2.16668 17.7141 2.16668 16.3333ZM15.8875 18.1017C15.5525 18.4359 15.1289 18.6672 14.6667 18.7684V15.5C14.6667 15.0398 15.0398 14.6667 15.5 14.6667H18.7708C18.6677 15.1279 18.4367 15.5508 18.1041 15.8867L15.8875 18.1017Z" fill="#322972"/>
</g>
<defs>
<clipPath id="clip0_2975_141843">
<rect width="20" height="20" fill="white" transform="translate(0.5 0.5)"/>
</clipPath>
</defs>
</svg>
