<svg width="21" height="21" viewBox="0 0 21 21" fill="none" xmlns="http://www.w3.org/2000/svg">
<g clip-path="url(#clip0_2975_141841)">
<path d="M16.3333 5.5V3.83333C16.3333 2.94928 15.9821 2.10143 15.357 1.47631C14.7319 0.85119 13.8841 0.5 13 0.5L8 0.5C7.11594 0.5 6.2681 0.85119 5.64298 1.47631C5.01786 2.10143 4.66667 2.94928 4.66667 3.83333V5.5C3.562 5.50132 2.50296 5.94073 1.72185 6.72185C0.940735 7.50296 0.501323 8.562 0.5 9.66667L0.5 13.8333C0.501323 14.938 0.940735 15.997 1.72185 16.7782C2.50296 17.5593 3.562 17.9987 4.66667 18C4.66667 18.663 4.93006 19.2989 5.3989 19.7678C5.86774 20.2366 6.50363 20.5 7.16667 20.5H13.8333C14.4964 20.5 15.1323 20.2366 15.6011 19.7678C16.0699 19.2989 16.3333 18.663 16.3333 18C17.438 17.9987 18.497 17.5593 19.2782 16.7782C20.0593 15.997 20.4987 14.938 20.5 13.8333V9.66667C20.4987 8.562 20.0593 7.50296 19.2782 6.72185C18.497 5.94073 17.438 5.50132 16.3333 5.5ZM6.33333 3.83333C6.33333 3.39131 6.50893 2.96738 6.82149 2.65482C7.13405 2.34226 7.55797 2.16667 8 2.16667H13C13.442 2.16667 13.8659 2.34226 14.1785 2.65482C14.4911 2.96738 14.6667 3.39131 14.6667 3.83333V5.5H6.33333V3.83333ZM14.6667 18C14.6667 18.221 14.5789 18.433 14.4226 18.5893C14.2663 18.7455 14.0543 18.8333 13.8333 18.8333H7.16667C6.94565 18.8333 6.73369 18.7455 6.57741 18.5893C6.42113 18.433 6.33333 18.221 6.33333 18V14.6667C6.33333 14.4457 6.42113 14.2337 6.57741 14.0774C6.73369 13.9211 6.94565 13.8333 7.16667 13.8333H13.8333C14.0543 13.8333 14.2663 13.9211 14.4226 14.0774C14.5789 14.2337 14.6667 14.4457 14.6667 14.6667V18ZM18.8333 13.8333C18.8333 14.4964 18.5699 15.1323 18.1011 15.6011C17.6323 16.0699 16.9964 16.3333 16.3333 16.3333V14.6667C16.3333 14.0036 16.0699 13.3677 15.6011 12.8989C15.1323 12.4301 14.4964 12.1667 13.8333 12.1667H7.16667C6.50363 12.1667 5.86774 12.4301 5.3989 12.8989C4.93006 13.3677 4.66667 14.0036 4.66667 14.6667V16.3333C4.00363 16.3333 3.36774 16.0699 2.8989 15.6011C2.43006 15.1323 2.16667 14.4964 2.16667 13.8333V9.66667C2.16667 9.00362 2.43006 8.36774 2.8989 7.8989C3.36774 7.43006 4.00363 7.16667 4.66667 7.16667H16.3333C16.9964 7.16667 17.6323 7.43006 18.1011 7.8989C18.5699 8.36774 18.8333 9.00362 18.8333 9.66667V13.8333Z" fill="#322972"/>
<path d="M15.5 8.8335H13.8333C13.6123 8.8335 13.4004 8.92129 13.2441 9.07757C13.0878 9.23385 13 9.44581 13 9.66683C13 9.88784 13.0878 10.0998 13.2441 10.2561C13.4004 10.4124 13.6123 10.5002 13.8333 10.5002H15.5C15.721 10.5002 15.933 10.4124 16.0893 10.2561C16.2455 10.0998 16.3333 9.88784 16.3333 9.66683C16.3333 9.44581 16.2455 9.23385 16.0893 9.07757C15.933 8.92129 15.721 8.8335 15.5 8.8335Z" fill="#322972"/>
</g>
<defs>
<clipPath id="clip0_2975_141841">
<rect width="20" height="20" fill="white" transform="translate(0.5 0.5)"/>
</clipPath>
</defs>
</svg>
