<svg width="20" height="20" viewBox="0 0 20 20" fill="none" xmlns="http://www.w3.org/2000/svg">
<path d="M9.99935 15.8346C11.8403 15.8346 13.3327 14.3423 13.3327 12.5013C13.3327 10.6604 11.8403 9.16797 9.99935 9.16797C8.1584 9.16797 6.66602 10.6604 6.66602 12.5013C6.66602 14.3423 8.1584 15.8346 9.99935 15.8346Z" stroke="#322972" stroke-width="1.5" stroke-miterlimit="10" stroke-linecap="round" stroke-linejoin="round"/>
<path d="M8.69922 12.5003L9.24089 13.0419C9.39922 13.2003 9.65755 13.2086 9.81589 13.0503L11.2992 11.6836" stroke="#322972" stroke-width="1.5" stroke-linecap="round" stroke-linejoin="round"/>
<path d="M7.49937 18.3346H12.4994C15.8494 18.3346 16.4494 16.993 16.6244 15.3596L17.2494 10.3596C17.4744 8.3263 16.891 6.66797 13.3327 6.66797H6.66603C3.1077 6.66797 2.52437 8.3263 2.74937 10.3596L3.37437 15.3596C3.54937 16.993 4.14937 18.3346 7.49937 18.3346Z" stroke="#322972" stroke-width="1.5" stroke-miterlimit="10" stroke-linecap="round" stroke-linejoin="round"/>
<path d="M6.25 6.38996V5.58163C6.25 3.70663 7.75833 1.86496 9.63333 1.68996C11.8667 1.4733 13.75 3.23163 13.75 5.4233V6.5733" stroke="#322972" stroke-width="1.5" stroke-miterlimit="10" stroke-linecap="round" stroke-linejoin="round"/>
</svg>
