<svg width="24" height="24" viewBox="0 0 24 24" fill="none" xmlns="http://www.w3.org/2000/svg">
<path d="M2 9V7C2 4 4 2 7 2H17C20 2 22 4 22 7V9" stroke="#322972" stroke-width="1.5" stroke-miterlimit="10" stroke-linecap="round" stroke-linejoin="round"/>
<path d="M2 15V17C2 20 4 22 7 22H17C20 22 22 20 22 17V15" stroke="#322972" stroke-width="1.5" stroke-miterlimit="10" stroke-linecap="round" stroke-linejoin="round"/>
<path d="M6.69922 9.26172L11.9992 12.3317L17.2592 9.28174" stroke="#322972" stroke-width="1.5" stroke-linecap="round" stroke-linejoin="round"/>
<path d="M12 17.7703V12.3203" stroke="#322972" stroke-width="1.5" stroke-linecap="round" stroke-linejoin="round"/>
<path d="M10.7602 6.28859L7.56023 8.06862C6.84023 8.46862 6.24023 9.47861 6.24023 10.3086V13.6986C6.24023 14.5286 6.83023 15.5386 7.56023 15.9386L10.7602 17.7186C11.4402 18.0986 12.5602 18.0986 13.2502 17.7186L16.4502 15.9386C17.1702 15.5386 17.7702 14.5286 17.7702 13.6986V10.3086C17.7702 9.47861 17.1802 8.46862 16.4502 8.06862L13.2502 6.28859C12.5602 5.89859 11.4402 5.89859 10.7602 6.28859Z" stroke="#322972" stroke-width="1.5" stroke-linecap="round" stroke-linejoin="round"/>
</svg>
