<svg width="24" height="25" viewBox="0 0 24 25" fill="none" xmlns="http://www.w3.org/2000/svg">
<path d="M12 19.4375C14.2091 19.4375 16 17.6466 16 15.4375C16 13.2284 14.2091 11.4375 12 11.4375C9.79086 11.4375 8 13.2284 8 15.4375C8 17.6466 9.79086 19.4375 12 19.4375Z" stroke="#322972" stroke-width="1.5" stroke-miterlimit="10" stroke-linecap="round" stroke-linejoin="round"/>
<path d="M13.0692 16.5475L10.9492 14.4375" stroke="#322972" stroke-width="1.5" stroke-miterlimit="10" stroke-linecap="round" stroke-linejoin="round"/>
<path d="M13.0497 14.457L10.9297 16.577" stroke="#322972" stroke-width="1.5" stroke-miterlimit="10" stroke-linecap="round" stroke-linejoin="round"/>
<path d="M9.0008 22.4375H15.0008C19.0208 22.4375 19.7408 20.8275 19.9508 18.8675L20.7008 12.8675C20.9708 10.4275 20.2708 8.4375 16.0008 8.4375H8.0008C3.7308 8.4375 3.0308 10.4275 3.3008 12.8675L4.0508 18.8675C4.2608 20.8275 4.9808 22.4375 9.0008 22.4375Z" stroke="#322972" stroke-width="1.5" stroke-miterlimit="10" stroke-linecap="round" stroke-linejoin="round"/>
<path d="M7.5 8.10702V7.13702C7.5 4.88702 9.31 2.67702 11.56 2.46702C14.24 2.20702 16.5 4.31702 16.5 6.94702V8.32702" stroke="#322972" stroke-width="1.5" stroke-miterlimit="10" stroke-linecap="round" stroke-linejoin="round"/>
</svg>
