<svg width="20" height="21" viewBox="0 0 20 21" fill="none" xmlns="http://www.w3.org/2000/svg">
<path d="M17.0827 9.91698V6.367C17.0827 3.00867 16.2993 2.16699 13.1493 2.16699H6.84935C3.69935 2.16699 2.91602 3.00867 2.91602 6.367V15.7503C2.91602 17.967 4.13269 18.492 5.60769 16.9087L5.61601 16.9003C6.29934 16.1753 7.34101 16.2336 7.93267 17.0253L8.77435 18.1503" stroke="#322972" stroke-width="1.5" stroke-linecap="round" stroke-linejoin="round"/>
<path d="M6.66602 6.33301H13.3327" stroke="#322972" stroke-width="1.5" stroke-linecap="round" stroke-linejoin="round"/>
<path d="M7.5 9.66699H12.5" stroke="#322972" stroke-width="1.5" stroke-linecap="round" stroke-linejoin="round"/>
<path d="M13.5625 16.4824C13.5625 16.8723 13.8898 17.1913 14.288 17.1913H15.1061C15.4552 17.1913 15.7389 16.9128 15.7389 16.5735C15.7389 16.2038 15.5643 16.0722 15.308 15.9861L13.9989 15.5607C13.737 15.4746 13.5625 15.343 13.5625 14.9733C13.5625 14.634 13.8461 14.3555 14.1952 14.3555H15.0134C15.417 14.3605 15.7443 14.6745 15.7443 15.0644" stroke="#322972" stroke-linecap="round" stroke-linejoin="round"/>
<path d="M14.6523 17.2168V17.5915" stroke="#322972" stroke-linecap="round" stroke-linejoin="round"/>
<path d="M14.6523 13.9561V14.351" stroke="#322972" stroke-linecap="round" stroke-linejoin="round"/>
<path d="M14.6523 19.7715C16.8615 19.7715 18.6523 17.9806 18.6523 15.7715C18.6523 13.5623 16.8615 11.7715 14.6523 11.7715C12.4432 11.7715 10.6523 13.5623 10.6523 15.7715C10.6523 17.9806 12.4432 19.7715 14.6523 19.7715Z" stroke="#322972" stroke-linecap="round" stroke-linejoin="round"/>
</svg>
