<svg width="20" height="20" viewBox="0 0 20 20" fill="none" xmlns="http://www.w3.org/2000/svg">
<path d="M17.0827 9.41601V5.86602C17.0827 2.50769 16.2993 1.66602 13.1493 1.66602H6.84935C3.69935 1.66602 2.91602 2.50769 2.91602 5.86602V15.2493C2.91602 17.466 4.13269 17.991 5.60769 16.4077L5.61601 16.3993C6.29934 15.6743 7.34101 15.7327 7.93267 16.5243L8.77435 17.6493" stroke="#322972" stroke-width="1.5" stroke-linecap="round" stroke-linejoin="round"/>
<path d="M6.66602 5.83398H13.3327" stroke="#322972" stroke-width="1.5" stroke-linecap="round" stroke-linejoin="round"/>
<path d="M7.5 9.16602H12.5" stroke="#322972" stroke-width="1.5" stroke-linecap="round" stroke-linejoin="round"/>
<path d="M15.1765 12.3095L12.2265 15.2595C12.1098 15.3762 12.0015 15.5929 11.9765 15.7512L11.8182 16.8762C11.7598 17.2845 12.0432 17.5679 12.4515 17.5096L13.5765 17.3512C13.7348 17.3262 13.9598 17.2179 14.0682 17.1012L17.0182 14.1512C17.5265 13.6429 17.7682 13.0512 17.0182 12.3012C16.2765 11.5596 15.6848 11.8012 15.1765 12.3095Z" stroke="#322972" stroke-width="1.5" stroke-miterlimit="10" stroke-linecap="round" stroke-linejoin="round"/>
<path d="M14.75 12.7344C15 13.6344 15.7 14.3344 16.6 14.5844" stroke="#322972" stroke-width="1.5" stroke-miterlimit="10" stroke-linecap="round" stroke-linejoin="round"/>
</svg>
