<svg width="20" height="20" viewBox="0 0 20 20" fill="none" xmlns="http://www.w3.org/2000/svg">
<path d="M9.99935 18.3346C14.6017 18.3346 18.3327 14.6037 18.3327 10.0013C18.3327 5.39893 14.6017 1.66797 9.99935 1.66797C5.39698 1.66797 1.66602 5.39893 1.66602 10.0013C1.66602 14.6037 5.39698 18.3346 9.99935 18.3346Z" stroke="#7B7B7B" stroke-width="1.5" stroke-linecap="round" stroke-linejoin="round"/>
<path d="M6.67578 12.0919C6.82578 12.3419 7.00911 12.5753 7.21744 12.7836C8.75078 14.317 11.2424 14.317 12.7841 12.7836C13.4091 12.1586 13.7674 11.3669 13.8841 10.5586" stroke="#7B7B7B" stroke-width="1.5" stroke-linecap="round" stroke-linejoin="round"/>
<path d="M6.11719 9.44144C6.23385 8.62478 6.59219 7.84141 7.21719 7.21641C8.75053 5.68307 11.2422 5.68307 12.7839 7.21641C13.0005 7.43307 13.1755 7.66642 13.3255 7.90809" stroke="#7B7B7B" stroke-width="1.5" stroke-linecap="round" stroke-linejoin="round"/>
<path d="M6.51758 14.3187V12.0938H8.74256" stroke="#7B7B7B" stroke-width="1.5" stroke-linecap="round" stroke-linejoin="round"/>
<path d="M13.4848 5.68359V7.90858H11.2598" stroke="#7B7B7B" stroke-width="1.5" stroke-linecap="round" stroke-linejoin="round"/>
</svg>
