<svg width="25" height="25" viewBox="0 0 25 25" fill="none" xmlns="http://www.w3.org/2000/svg">
<path d="M7.20117 9.75977L12.5012 12.8298L17.7612 9.77976" stroke="#322972" stroke-width="1.5" stroke-linecap="round" stroke-linejoin="round"/>
<path d="M12.502 18.2693V12.8193" stroke="#322972" stroke-width="1.5" stroke-linecap="round" stroke-linejoin="round"/>
<path d="M11.2603 6.78986L8.06024 8.56986C7.34024 8.96986 6.74023 9.97985 6.74023 10.8099V14.1999C6.74023 15.0299 7.33024 16.0399 8.06024 16.4399L11.2603 18.2199C11.9403 18.5999 13.0602 18.5999 13.7502 18.2199L16.9503 16.4399C17.6703 16.0399 18.2702 15.0299 18.2702 14.1999V10.7999C18.2702 9.96986 17.6803 8.95985 16.9503 8.55985L13.7502 6.77985C13.0602 6.39985 11.9403 6.39986 11.2603 6.78986Z" stroke="#322972" stroke-width="1.5" stroke-linecap="round" stroke-linejoin="round"/>
<path d="M22.5 15.5C22.5 19.37 19.37 22.5 15.5 22.5L16.55 20.75" stroke="#322972" stroke-width="1.5" stroke-linecap="round" stroke-linejoin="round"/>
<path d="M2.5 9.5C2.5 5.63 5.63 2.5 9.5 2.5L8.45001 4.25" stroke="#322972" stroke-width="1.5" stroke-linecap="round" stroke-linejoin="round"/>
</svg>
