<svg width="21" height="21" viewBox="0 0 21 21" fill="none" xmlns="http://www.w3.org/2000/svg">
<path d="M7.72656 12.4412C7.72656 13.5162 8.55156 14.3829 9.57656 14.3829H11.6682C12.5599 14.3829 13.2849 13.6245 13.2849 12.6912C13.2849 11.6745 12.8432 11.3162 12.1849 11.0829L8.82656 9.91621C8.16823 9.68288 7.72656 9.32454 7.72656 8.30788C7.72656 7.37454 8.45156 6.61621 9.34323 6.61621H11.4349C12.4599 6.61621 13.2849 7.48288 13.2849 8.55788" stroke="#322972" stroke-width="1.5" stroke-linecap="round" stroke-linejoin="round"/>
<path d="M10.5 5.5V15.5" stroke="#322972" stroke-width="1.5" stroke-linecap="round" stroke-linejoin="round"/>
<path d="M10.4993 18.8337C15.1017 18.8337 18.8327 15.1027 18.8327 10.5003C18.8327 5.89795 15.1017 2.16699 10.4993 2.16699C5.89698 2.16699 2.16602 5.89795 2.16602 10.5003C2.16602 15.1027 5.89698 18.8337 10.4993 18.8337Z" stroke="#322972" stroke-width="1.5" stroke-linecap="round" stroke-linejoin="round"/>
</svg>
