<svg width="18" height="18" viewBox="0 0 18 18" fill="none" xmlns="http://www.w3.org/2000/svg">
<path fill-rule="evenodd" clip-rule="evenodd" d="M4.58861 2.09056C4.91404 1.76512 4.91404 1.23749 4.58861 0.912044C4.26317 0.58661 3.73553 0.58661 3.41009 0.912044L0.910091 3.41204C0.584657 3.73749 0.584657 4.26512 0.910091 4.59056C1.23553 4.91599 1.76317 4.91599 2.08861 4.59056L4.58861 2.09056ZM13.4101 0.912044C13.0847 1.23749 13.0847 1.76512 13.4101 2.09056L15.9101 4.59056C16.2355 4.91599 16.7632 4.91599 17.0886 4.59056C17.414 4.26512 17.414 3.73749 17.0886 3.41204L14.5886 0.912044C14.2632 0.58661 13.7355 0.58661 13.4101 0.912044ZM8.99935 15.668C12.221 15.668 14.8327 13.0563 14.8327 9.83464C14.8327 6.61298 12.221 4.0013 8.99935 4.0013C5.77769 4.0013 3.16602 6.61298 3.16602 9.83464C3.16602 13.0563 5.77769 15.668 8.99935 15.668ZM8.99935 17.3346C13.1415 17.3346 16.4993 13.9768 16.4993 9.83464C16.4993 5.6925 13.1415 2.33464 8.99935 2.33464C4.85722 2.33464 1.49935 5.6925 1.49935 9.83464C1.49935 13.9768 4.85722 17.3346 8.99935 17.3346ZM6.84407 11.3201L9.32968 8.43047H7.36043C6.99409 8.43047 6.68375 8.13405 6.68375 7.7613C6.68375 7.3918 6.99087 7.08464 7.36043 7.08464H10.7129C11.0824 7.08464 11.3896 7.3918 11.3896 7.7613V7.7838C11.3896 8.03322 11.2953 8.2418 11.1419 8.42939L11.1393 8.43247L8.6536 11.3221H10.7129C11.0824 11.3221 11.3896 11.6293 11.3896 11.9988C11.3896 12.3716 11.0793 12.668 10.7129 12.668H7.27042C6.90087 12.668 6.59375 12.3609 6.59375 11.9913V11.9688C6.59375 11.7213 6.68677 11.5036 6.84407 11.3201Z" fill="#322972"/>
</svg>
