<svg width="20" height="21" viewBox="0 0 20 21" fill="none" xmlns="http://www.w3.org/2000/svg">
<path d="M9.18203 17.1133H6.2487C5.73203 17.1133 5.2737 17.0966 4.86536 17.0383C2.6737 16.7966 2.08203 15.7633 2.08203 12.9466V8.77995C2.08203 5.96328 2.6737 4.92995 4.86536 4.68828C5.2737 4.62995 5.73203 4.61328 6.2487 4.61328H9.13203" stroke="#322972" stroke-width="1.5" stroke-linecap="round" stroke-linejoin="round"/>
<path d="M12.5156 4.61328H13.749C14.2656 4.61328 14.724 4.62995 15.1323 4.68828C17.324 4.92995 17.9156 5.96328 17.9156 8.77995V12.9466C17.9156 15.7633 17.324 16.7966 15.1323 17.0383C14.724 17.0966 14.2656 17.1133 13.749 17.1133H12.5156" stroke="#322972" stroke-width="1.5" stroke-linecap="round" stroke-linejoin="round"/>
<path d="M12.5 2.53125V19.1979" stroke="#322972" stroke-width="1.5" stroke-linecap="round" stroke-linejoin="round"/>
<path d="M6.66797 7.94531V13.7786" stroke="#322972" stroke-width="1.5" stroke-linecap="round" stroke-linejoin="round"/>
</svg>
