<svg width="30" height="30" viewBox="0 0 30 30" fill="none" xmlns="http://www.w3.org/2000/svg">
<circle cx="15" cy="15" r="14.5" fill="white" stroke="#322972"/>
<mask id="path-2-inside-1_665_6454" fill="white">
<path d="M5.22511 12.8894C4.75309 15.077 5.02851 17.3597 6.0073 19.3722C6.98609 21.3848 8.61167 23.0108 10.6239 23.9902C12.6362 24.9696 14.9188 25.2456 17.1065 24.7742C19.2942 24.3029 21.2606 23.1113 22.691 21.3901C24.1213 19.669 24.933 17.5177 24.9962 15.2807C25.0593 13.0437 24.3702 10.8501 23.0392 9.05103C21.7082 7.25194 19.8121 5.95133 17.6545 5.35731C15.4968 4.76329 13.2023 4.91019 11.138 5.77451L11.5242 6.69692C13.3821 5.91903 15.4472 5.78682 17.3891 6.32144C19.3309 6.85606 21.0374 8.02661 22.2353 9.64578C23.4332 11.265 24.0534 13.2392 23.9966 15.2525C23.9397 17.2658 23.2092 19.2019 21.9219 20.751C20.6346 22.3 18.8648 23.3724 16.8959 23.7967C14.9269 24.2209 12.8726 23.9725 11.0615 23.091C9.25052 22.2096 7.7875 20.7462 6.90659 18.9349C6.02568 17.1236 5.7778 15.0692 6.20262 13.1003L5.22511 12.8894Z"/>
</mask>
<path d="M5.22511 12.8894C4.75309 15.077 5.02851 17.3597 6.0073 19.3722C6.98609 21.3848 8.61167 23.0108 10.6239 23.9902C12.6362 24.9696 14.9188 25.2456 17.1065 24.7742C19.2942 24.3029 21.2606 23.1113 22.691 21.3901C24.1213 19.669 24.933 17.5177 24.9962 15.2807C25.0593 13.0437 24.3702 10.8501 23.0392 9.05103C21.7082 7.25194 19.8121 5.95133 17.6545 5.35731C15.4968 4.76329 13.2023 4.91019 11.138 5.77451L11.5242 6.69692C13.3821 5.91903 15.4472 5.78682 17.3891 6.32144C19.3309 6.85606 21.0374 8.02661 22.2353 9.64578C23.4332 11.265 24.0534 13.2392 23.9966 15.2525C23.9397 17.2658 23.2092 19.2019 21.9219 20.751C20.6346 22.3 18.8648 23.3724 16.8959 23.7967C14.9269 24.2209 12.8726 23.9725 11.0615 23.091C9.25052 22.2096 7.7875 20.7462 6.90659 18.9349C6.02568 17.1236 5.7778 15.0692 6.20262 13.1003L5.22511 12.8894Z" stroke="#322972" stroke-width="3" mask="url(#path-2-inside-1_665_6454)"/>
<circle cx="15" cy="15" r="5" fill="#322972"/>
</svg>
