<svg width="21" height="20" viewBox="0 0 21 20" fill="none" xmlns="http://www.w3.org/2000/svg">
<path d="M10.4995 10.8999C10.3912 10.8999 10.2829 10.8749 10.1829 10.8166L5.7662 8.26658C5.4662 8.09158 5.36619 7.70825 5.54119 7.41658C5.71619 7.11658 6.09118 7.01658 6.39952 7.19158L10.4995 9.56658L14.5745 7.20825C14.8745 7.03325 15.2579 7.14158 15.4329 7.43325C15.6079 7.73325 15.4995 8.11658 15.2079 8.28325L10.8245 10.8166C10.7162 10.8666 10.6079 10.8999 10.4995 10.8999Z" fill="#322972"/>
<path d="M10.5 15.4318C10.1583 15.4318 9.875 15.1484 9.875 14.8068V10.2734C9.875 9.93177 10.1583 9.64844 10.5 9.64844C10.8417 9.64844 11.125 9.93177 11.125 10.2734V14.8068C11.125 15.1484 10.8417 15.4318 10.5 15.4318Z" fill="#322972"/>
<path d="M10.4992 15.6237C10.0159 15.6237 9.54091 15.5154 9.15757 15.307L6.4909 13.8237C5.6909 13.382 5.07422 12.3237 5.07422 11.407V8.58203C5.07422 7.6737 5.69923 6.60703 6.4909 6.16536L9.15757 4.68203C9.92424 4.25703 11.0742 4.25703 11.8409 4.68203L14.5076 6.16536C15.3076 6.60703 15.9242 7.66536 15.9242 8.58203V11.407C15.9242 12.3154 15.2992 13.382 14.5076 13.8237L11.8409 15.307C11.4575 15.5154 10.9826 15.6237 10.4992 15.6237ZM10.4992 5.6237C10.2242 5.6237 9.95756 5.6737 9.76589 5.78203L7.09924 7.26536C6.6909 7.49036 6.32422 8.1237 6.32422 8.58203V11.407C6.32422 11.8737 6.6909 12.4987 7.09924 12.7237L9.76589 14.207C10.1492 14.4237 10.8492 14.4237 11.2326 14.207L13.8992 12.7237C14.3075 12.4987 14.6742 11.8654 14.6742 11.407V8.58203C14.6742 8.11536 14.3075 7.49036 13.8992 7.26536L11.2326 5.78203C11.0409 5.6737 10.7742 5.6237 10.4992 5.6237Z" fill="#322972"/>
<path d="M13.159 18.9589C12.934 18.9589 12.7257 18.8339 12.6174 18.6422C12.509 18.4422 12.509 18.2089 12.6257 18.0089L13.5007 16.5505C13.6757 16.2589 14.059 16.1589 14.359 16.3339C14.659 16.5089 14.7507 16.8922 14.5757 17.1922L14.3507 17.5672C16.6507 17.0255 18.3757 14.9589 18.3757 12.4922C18.3757 12.1505 18.659 11.8672 19.0007 11.8672C19.3424 11.8672 19.6257 12.1505 19.6257 12.4922C19.6174 16.0589 16.7173 18.9589 13.159 18.9589Z" fill="#322972"/>
<path d="M1.49621 12.3301C1.50014 12.1051 1.62875 11.899 1.82228 11.794C2.02414 11.6892 2.25744 11.6933 2.45538 11.8134L3.89822 12.7137C4.18678 12.8938 4.28008 13.2788 4.09987 13.5757C3.91966 13.8726 3.53479 13.9576 3.23789 13.7774L2.86687 13.5458C3.36831 15.8549 5.40456 17.6158 7.87085 17.6588C8.21247 17.6648 8.49081 17.953 8.48485 18.2946C8.47889 18.6362 8.19065 18.9146 7.84904 18.9086C4.28306 18.838 1.43411 15.8879 1.49621 12.3301Z" fill="#322972"/>
<path d="M2.00781 8.1263C1.66615 8.1263 1.38281 7.84297 1.38281 7.5013C1.38281 3.94297 4.28281 1.04297 7.84115 1.04297C8.06615 1.04297 8.27447 1.16797 8.38281 1.35963C8.49114 1.55963 8.49116 1.79297 8.37449 1.99297L7.49948 3.4513C7.32448 3.74297 6.94114 3.84297 6.64114 3.66797C6.34114 3.49297 6.24947 3.10964 6.42447 2.80964L6.64949 2.43463C4.34949 2.9763 2.62447 5.04297 2.62447 7.50964C2.6328 7.84297 2.34948 8.1263 2.00781 8.1263Z" fill="#322972"/>
<path d="M12.5338 1.70441C12.5398 1.36279 12.828 1.08445 13.1696 1.09041C16.7274 1.15251 19.5763 4.10268 19.5142 7.66047C19.5103 7.88544 19.3817 8.09156 19.1882 8.19653C18.9863 8.30135 18.753 8.2973 18.5551 8.17716L17.1122 7.27683C16.8237 7.09676 16.7304 6.71174 16.9106 6.41484C17.0908 6.11794 17.4757 6.03297 17.7726 6.21318L18.1436 6.44471C17.6421 4.1356 15.6059 2.37478 13.1396 2.33174C12.8062 2.33425 12.5278 2.04602 12.5338 1.70441Z" fill="#322972"/>
</svg>
