<svg width="20" height="20" viewBox="0 0 20 20" fill="none" xmlns="http://www.w3.org/2000/svg">
<path d="M17.5 4.98307C14.725 4.70807 11.9333 4.56641 9.15 4.56641C7.5 4.56641 5.85 4.64974 4.2 4.81641L2.5 4.98307" stroke="#322972" stroke-width="1.5" stroke-linecap="round" stroke-linejoin="round"/>
<path d="M7.08203 4.13906L7.26536 3.0474C7.3987 2.25573 7.4987 1.66406 8.90703 1.66406H11.0904C12.4987 1.66406 12.607 2.28906 12.732 3.05573L12.9154 4.13906" stroke="#322972" stroke-width="1.5" stroke-linecap="round" stroke-linejoin="round"/>
<path d="M15.7077 7.61719L15.166 16.0089C15.0744 17.3172 14.9993 18.3339 12.6743 18.3339H7.32435C4.99935 18.3339 4.92435 17.3172 4.83268 16.0089L4.29102 7.61719" stroke="#322972" stroke-width="1.5" stroke-linecap="round" stroke-linejoin="round"/>
<path d="M8.60742 13.75H11.3824" stroke="#322972" stroke-width="1.5" stroke-linecap="round" stroke-linejoin="round"/>
<path d="M7.91797 10.4141H12.0846" stroke="#322972" stroke-width="1.5" stroke-linecap="round" stroke-linejoin="round"/>
</svg>
