<svg width="25" height="24" viewBox="0 0 25 24" fill="none" xmlns="http://www.w3.org/2000/svg">
<path d="M7.38086 18.8981C6.97086 18.8981 6.63086 18.5581 6.63086 18.1481V16.0781C6.63086 15.6681 6.97086 15.3281 7.38086 15.3281C7.79086 15.3281 8.13086 15.6681 8.13086 16.0781V18.1481C8.13086 18.5681 7.79086 18.8981 7.38086 18.8981Z" fill="#322972"/>
<path d="M12.5 18.9C12.09 18.9 11.75 18.56 11.75 18.15V14C11.75 13.59 12.09 13.25 12.5 13.25C12.91 13.25 13.25 13.59 13.25 14V18.15C13.25 18.57 12.91 18.9 12.5 18.9Z" fill="#322972"/>
<path d="M17.6191 18.8997C17.2091 18.8997 16.8691 18.5597 16.8691 18.1497V11.9297C16.8691 11.5197 17.2091 11.1797 17.6191 11.1797C18.0291 11.1797 18.3691 11.5197 18.3691 11.9297V18.1497C18.3691 18.5697 18.0391 18.8997 17.6191 18.8997Z" fill="#322972"/>
<path d="M7.37958 13.1814C7.03958 13.1814 6.73958 12.9514 6.64958 12.6114C6.54958 12.2114 6.78958 11.8014 7.19958 11.7014C10.8796 10.7814 14.1196 8.77138 16.5896 5.90138L17.0496 5.36138C17.3196 5.05138 17.7896 5.01138 18.1096 5.28138C18.4196 5.55138 18.4596 6.02138 18.1896 6.34138L17.7296 6.88138C15.0596 10.0014 11.5396 12.1714 7.55958 13.1614C7.49958 13.1814 7.43958 13.1814 7.37958 13.1814Z" fill="#322972"/>
<path d="M17.6195 9.52156C17.2095 9.52156 16.8695 9.18156 16.8695 8.77156V6.60156H14.6895C14.2795 6.60156 13.9395 6.26156 13.9395 5.85156C13.9395 5.44156 14.2795 5.10156 14.6895 5.10156H17.6195C18.0295 5.10156 18.3695 5.44156 18.3695 5.85156V8.78156C18.3695 9.19156 18.0395 9.52156 17.6195 9.52156Z" fill="#322972"/>
<path d="M15.5 22.75H9.5C4.07 22.75 1.75 20.43 1.75 15V9C1.75 3.57 4.07 1.25 9.5 1.25H15.5C20.93 1.25 23.25 3.57 23.25 9V15C23.25 20.43 20.93 22.75 15.5 22.75ZM9.5 2.75C4.89 2.75 3.25 4.39 3.25 9V15C3.25 19.61 4.89 21.25 9.5 21.25H15.5C20.11 21.25 21.75 19.61 21.75 15V9C21.75 4.39 20.11 2.75 15.5 2.75H9.5Z" fill="#322972"/>
</svg>
