<svg width="110" height="93" viewBox="0 0 110 93" fill="none" xmlns="http://www.w3.org/2000/svg">
<path d="M57.8428 22.1255L57.5533 22.0457C56.6929 21.8088 56.1404 20.9412 56.4228 20.0665C56.4228 20.0664 56.4229 20.0662 56.4229 20.0662L56.8987 20.2198L57.8428 22.1255ZM57.8428 22.1255L57.8653 22.1017M57.8428 22.1255L57.8653 22.1017M57.8653 22.1017C58.6229 22.1682 59.3768 21.7386 59.6174 20.9888L57.8653 22.1017Z" fill="#322972" stroke="white"/>
<path d="M90.1069 62.6745H83.0857C82.4396 62.6745 81.9155 62.1905 81.9155 61.5938C81.9155 60.9972 82.4396 60.5132 83.0857 60.5132H90.1069C99.7853 60.5132 107.66 53.2411 107.66 44.3035C107.66 35.3659 99.7853 28.0939 90.1069 28.0939H89.938C89.5987 28.0939 89.276 27.958 89.0537 27.721C88.8314 27.4841 88.731 27.1699 88.7795 26.8596C88.884 26.1865 88.9367 25.5104 88.9367 24.852C88.9367 17.1061 82.1117 10.8035 73.7239 10.8035C70.4607 10.8035 67.3487 11.7452 64.724 13.5275C64.1473 13.9188 63.3281 13.7451 62.9946 13.1593C55.5613 0.0881659 36.1464 -1.66715 26.0807 9.70357C21.8404 14.4939 20.1744 20.7253 21.5094 26.7987C21.6565 27.4695 21.1006 28.0947 20.3626 28.0947H19.8937C10.2153 28.0947 2.34053 35.3667 2.34053 44.3043C2.34053 53.242 10.2153 60.514 19.8937 60.514H26.9148C27.5609 60.514 28.085 60.998 28.085 61.5946C28.085 62.1913 27.561 62.6753 26.9148 62.6753H19.8937C8.92453 62.6753 0 54.4338 0 44.3043C0 34.4588 8.43045 26.3972 18.975 25.9526C17.9845 19.6516 19.8786 13.2959 24.2685 8.3358C35.0453 -3.83917 55.6981 -2.47452 64.4286 11.1015C67.2137 9.48898 70.4008 8.64307 73.7235 8.64307C83.8859 8.64307 91.9387 16.6306 91.234 25.9627C101.681 26.5038 110 34.5229 110 44.3035C110 54.4338 101.075 62.6745 90.1063 62.6745L90.1069 62.6745Z" fill="#322972"/>
<path d="M25.5 63C25.5 79.2669 38.7333 92.5 55 92.5C71.2669 92.5 84.5 79.2666 84.5 63C84.5 46.7331 71.2669 33.5 55 33.5C38.7331 33.5 25.5 46.7333 25.5 63ZM28.8205 63C28.8205 48.5653 40.5651 36.8205 55 36.8205C69.4347 36.8205 81.1795 48.5651 81.1795 63C81.1795 77.4347 69.4347 89.1795 55 89.1795C40.5653 89.1795 28.8205 77.4349 28.8205 63Z" fill="#322972" stroke="white"/>
<path d="M60.5496 59.125C65.0496 59.5125 66.8871 61.825 66.8871 66.8875V67.05C66.8871 72.6375 64.6496 74.875 59.0621 74.875H50.9246C45.3371 74.875 43.0996 72.6375 43.0996 67.05V66.8875C43.0996 61.8625 44.9121 59.55 49.3371 59.1375" stroke="#322972" stroke-width="2" stroke-linecap="round" stroke-linejoin="round"/>
<path d="M55 66.7484V52.5234" stroke="#322972" stroke-width="2" stroke-linecap="round" stroke-linejoin="round"/>
<path d="M59.1875 55.3125L55 51.125L50.8125 55.3125" stroke="#322972" stroke-width="2" stroke-linecap="round" stroke-linejoin="round"/>
</svg>
