<svg width="25" height="24" viewBox="0 0 25 24" fill="none" xmlns="http://www.w3.org/2000/svg">
<path d="M8.4407 14.5099C7.8207 14.2799 7.2707 13.8299 6.9207 13.1899C6.1207 11.7299 6.6107 9.82989 8.0307 8.94989L10.3707 7.49988C11.7807 6.61988 13.6007 7.09987 14.4007 8.54987C15.2007 10.0099 14.7107 11.9099 13.2907 12.7899L12.9807 13.0099" stroke="#322972" stroke-width="1.5" stroke-linecap="round" stroke-linejoin="round"/>
<path d="M16.6092 9.44922C17.2292 9.67922 17.7792 10.1292 18.1292 10.7692C18.9292 12.2292 18.4392 14.1292 17.0192 15.0092L14.6792 16.4592C13.2692 17.3392 11.4492 16.8592 10.6492 15.4092C9.84921 13.9492 10.3392 12.0492 11.7592 11.1692L12.0692 10.9492" stroke="#322972" stroke-width="1.5" stroke-linecap="round" stroke-linejoin="round"/>
<path d="M12.5 22C18.0228 22 22.5 17.5228 22.5 12C22.5 6.47715 18.0228 2 12.5 2C6.97715 2 2.5 6.47715 2.5 12C2.5 17.5228 6.97715 22 12.5 22Z" stroke="#322972" stroke-width="1.5" stroke-linecap="round" stroke-linejoin="round"/>
</svg>
