<svg width="21" height="21" viewBox="0 0 21 21" fill="none" xmlns="http://www.w3.org/2000/svg">
<path d="M6.54516 15.9123L7.1491 16.2645C8.15806 16.8528 9.30474 17.167 10.5013 17.167C14.1832 17.167 17.168 14.1822 17.168 10.5003C17.168 6.81843 14.1832 3.83366 10.5013 3.83366C6.8194 3.83366 3.83464 6.81843 3.83464 10.5003C3.83464 11.6972 4.14899 12.8443 4.7377 13.8535L5.08969 14.4568L4.54511 16.4582L6.54516 15.9123ZM2.17145 18.8337L3.29809 14.6932C2.5796 13.4617 2.16797 12.0291 2.16797 10.5003C2.16797 5.89795 5.89893 2.16699 10.5013 2.16699C15.1037 2.16699 18.8347 5.89795 18.8347 10.5003C18.8347 15.1027 15.1037 18.8337 10.5013 18.8337C8.97307 18.8337 7.54091 18.4223 6.30954 17.7042L2.17145 18.8337ZM7.49409 6.5906C7.60565 6.58276 7.71759 6.58156 7.82931 6.58701C7.87444 6.58998 7.91936 6.59519 7.96431 6.60038C8.09703 6.61571 8.24297 6.69653 8.29204 6.80778C8.54064 7.37146 8.78185 7.93837 9.01565 8.50835C9.06724 8.63418 9.03615 8.79727 8.93799 8.95508C8.88815 9.03599 8.80989 9.14949 8.71922 9.26558C8.62498 9.38616 8.42214 9.60791 8.42214 9.60791C8.42214 9.60791 8.33997 9.70641 8.37094 9.82899C8.38301 9.87533 8.42149 9.94283 8.45639 9.99958C8.47571 10.031 8.49365 10.0591 8.50529 10.0785C8.71856 10.4346 9.00524 10.7956 9.3554 11.135C9.45574 11.2322 9.55307 11.3315 9.65774 11.4237C10.048 11.7677 10.4895 12.0489 10.9663 12.2572L10.9706 12.2591C11.041 12.2894 11.0772 12.306 11.1802 12.3497C11.2322 12.3717 11.2854 12.3907 11.34 12.4052C11.3597 12.4103 11.38 12.4132 11.4003 12.4147C11.5351 12.4227 11.613 12.3363 11.6462 12.2966C12.2492 11.5662 12.3043 11.5185 12.3085 11.5188V11.5202C12.3877 11.4367 12.5123 11.4077 12.6235 11.4145C12.6742 11.4176 12.7247 11.4273 12.7709 11.4484C13.2141 11.6506 13.9387 11.9659 13.9387 11.9659L14.4232 12.1837C14.5044 12.2229 14.5785 12.3152 14.5821 12.4048C14.5842 12.4606 14.5902 12.5506 14.5703 12.7152C14.5442 12.9308 14.4787 13.1904 14.4135 13.3264C14.3677 13.4218 14.3083 13.5065 14.2393 13.5782C14.1457 13.6753 14.0762 13.7343 13.9637 13.8182C13.8952 13.8692 13.8597 13.8932 13.8597 13.8932C13.744 13.9662 13.6787 14.0027 13.5408 14.0761C13.3263 14.1903 13.0893 14.256 12.8466 14.2685C12.6918 14.2764 12.5375 14.2876 12.3829 14.2792C12.3761 14.2788 11.9094 14.2072 11.9094 14.2072C10.7245 13.8955 9.62865 13.3117 8.7091 12.502C8.52109 12.3365 8.34674 12.1574 8.16877 11.9802C7.42789 11.2427 6.867 10.4473 6.52689 9.69499C6.35918 9.32399 6.25298 8.92666 6.2513 8.51781C6.24823 8.01203 6.41381 7.51966 6.72189 7.11854C6.78263 7.03947 6.84027 6.95745 6.93973 6.86354C7.04505 6.76408 7.11209 6.71069 7.18429 6.67375C7.28054 6.62451 7.38626 6.59818 7.49409 6.5906Z" fill="#322972"/>
</svg>
